<svg xmlns="http://www.w3.org/2000/svg" width="170" height="42" viewBox="0 0 170 42" fill="none">
    <path d="M47.394 35C47.5527 33.7647 47.7057 32.518 47.853 31.26C48.0117 29.9907 48.1817 28.6193 48.363 27.146L49.4 18.952C49.5813 17.49 49.7513 16.1017 49.91 14.787C50.0687 13.461 50.2387 12.118 50.42 10.758H57.492C57.9453 11.9593 58.3703 13.0983 58.767 14.175C59.175 15.2403 59.5773 16.3 59.974 17.354L62.354 23.644H62.796L65.023 17.371C65.4083 16.3057 65.7823 15.2517 66.145 14.209C66.519 13.1663 66.927 12.016 67.369 10.758H74.339C74.5203 12.1067 74.696 13.4383 74.866 14.753C75.036 16.0677 75.2173 17.473 75.41 18.969L76.481 27.18C76.6623 28.6533 76.8323 30.0133 76.991 31.26C77.161 32.4953 77.3253 33.742 77.484 35H70.82C70.65 33.5493 70.48 32.178 70.31 30.886C70.1513 29.5827 70.004 28.3587 69.868 27.214L69.256 22.318H68.797L67.233 27.571C66.8477 28.8743 66.4623 30.155 66.077 31.413C65.703 32.671 65.346 33.8667 65.006 35H60.399C60.127 34.252 59.8437 33.4643 59.549 32.637C59.2543 31.7983 58.954 30.954 58.648 30.104C58.3533 29.2427 58.053 28.3983 57.747 27.571L55.877 22.318H55.418L54.823 27.163C54.687 28.319 54.5397 29.5543 54.381 30.869C54.2223 32.1837 54.0523 33.5607 53.871 35H47.394ZM81.0442 41.715C81.5088 40.525 81.9848 39.3067 82.4722 38.06C82.9595 36.8247 83.4412 35.6177 83.9172 34.439V35.527C83.5205 34.371 83.1125 33.198 82.6932 32.008C82.2852 30.818 81.8885 29.6563 81.5032 28.523L80.4322 25.446C80.0242 24.2333 79.5992 22.9923 79.1572 21.723C78.7152 20.4423 78.2845 19.1957 77.8652 17.983L84.7162 17.796C84.9428 18.9067 85.1638 19.989 85.3792 21.043C85.6058 22.097 85.8325 23.1793 86.0592 24.29L86.8922 28.404H87.3682L88.3032 24.307C88.5525 23.2303 88.7905 22.1763 89.0172 21.145C89.2552 20.1023 89.4932 19.0483 89.7312 17.983H96.5482C96.1968 18.8897 95.8568 19.7737 95.5282 20.635C95.2108 21.485 94.8538 22.42 94.4572 23.44C94.0718 24.46 93.6128 25.684 93.0802 27.112L91.2442 31.889C90.4282 34.0423 89.7312 35.8783 89.1532 37.397C88.5752 38.927 88.0482 40.304 87.5722 41.528L81.0442 41.715ZM99.928 35C99.928 33.7987 99.928 32.637 99.928 31.515C99.928 30.393 99.928 29.1237 99.928 27.707V26.007C99.928 25.3497 99.928 24.613 99.928 23.797C99.928 22.981 99.928 22.1423 99.928 21.281C99.928 20.4197 99.928 19.5867 99.928 18.782C99.928 17.9773 99.928 17.252 99.928 16.606C99.928 15.1893 100.126 14.022 100.523 13.104C100.92 12.186 101.458 11.472 102.138 10.962C102.818 10.4407 103.589 10.078 104.45 9.874C105.311 9.67 106.207 9.568 107.136 9.568C107.714 9.568 108.264 9.59633 108.785 9.653C109.306 9.70967 109.765 9.78333 110.162 9.874C110.57 9.96467 110.904 10.061 111.165 10.163L110.689 15.263C110.27 15.1043 109.845 14.9797 109.414 14.889C108.983 14.787 108.575 14.736 108.19 14.736C107.499 14.736 106.96 14.8947 106.575 15.212C106.19 15.5293 105.997 16.0507 105.997 16.776C105.997 16.9233 105.997 17.1217 105.997 17.371C105.997 17.6203 105.997 17.8243 105.997 17.983L106.286 18.952V27.707C106.286 29.1237 106.286 30.393 106.286 31.515C106.286 32.637 106.286 33.7987 106.286 35H99.928ZM97.344 22.692V17.983H110.349V22.692C109.329 22.692 108.354 22.692 107.425 22.692C106.507 22.692 105.572 22.692 104.62 22.692H101.747H97.344ZM120.831 35.493C119.199 35.493 117.794 35.2493 116.615 34.762C115.436 34.2747 114.462 33.6117 113.691 32.773C112.932 31.923 112.371 30.9597 112.008 29.883C111.645 28.795 111.464 27.656 111.464 26.466C111.464 24.766 111.804 23.2417 112.484 21.893C113.164 20.533 114.184 19.4563 115.544 18.663C116.915 17.8697 118.632 17.473 120.695 17.473C122.282 17.473 123.659 17.7053 124.826 18.17C125.993 18.6233 126.962 19.2637 127.733 20.091C128.504 20.907 129.076 21.859 129.45 22.947C129.824 24.035 130.011 25.208 130.011 26.466C130.011 28.1887 129.66 29.73 128.957 31.09C128.266 32.45 127.234 33.5267 125.863 34.32C124.503 35.102 122.826 35.493 120.831 35.493ZM120.814 30.393C121.426 30.393 121.936 30.2117 122.344 29.849C122.752 29.475 123.052 28.9933 123.245 28.404C123.449 27.8033 123.551 27.1573 123.551 26.466C123.551 25.6273 123.432 24.919 123.194 24.341C122.956 23.763 122.627 23.3267 122.208 23.032C121.8 22.7373 121.324 22.59 120.78 22.59C120.168 22.59 119.647 22.76 119.216 23.1C118.797 23.44 118.474 23.9047 118.247 24.494C118.032 25.072 117.924 25.7293 117.924 26.466C117.924 27.1573 118.032 27.8033 118.247 28.404C118.474 28.9933 118.802 29.475 119.233 29.849C119.664 30.2117 120.191 30.393 120.814 30.393ZM132.532 35C132.532 33.7987 132.532 32.637 132.532 31.515C132.532 30.393 132.532 29.1237 132.532 27.707V26.007C132.532 24.681 132.532 23.3607 132.532 22.046C132.532 20.72 132.532 19.3657 132.532 17.983L137.819 17.694L138.091 20.618H138.601C139.032 19.7567 139.497 19.105 139.995 18.663C140.494 18.2097 140.998 17.898 141.508 17.728C142.03 17.558 142.54 17.473 143.038 17.473C143.254 17.473 143.526 17.4957 143.854 17.541C144.183 17.5863 144.489 17.6713 144.772 17.796L144.228 23.916C143.752 23.9047 143.322 23.8933 142.936 23.882C142.562 23.8707 142.177 23.865 141.78 23.865C141.463 23.865 141.157 23.8933 140.862 23.95C140.579 24.0067 140.313 24.1087 140.063 24.256C139.825 24.392 139.604 24.579 139.4 24.817C139.196 25.055 139.021 25.3497 138.873 25.701V28.064C138.873 29.2993 138.873 30.4667 138.873 31.566C138.873 32.654 138.873 33.7987 138.873 35H132.532ZM154.545 35.493C153.219 35.493 152.074 35.3117 151.111 34.949C150.159 34.575 149.428 33.963 148.918 33.113C148.419 32.2517 148.17 31.1013 148.17 29.662C148.17 29.05 148.17 28.4097 148.17 27.741C148.17 27.0723 148.17 26.3413 148.17 25.548C148.17 24.7433 148.17 23.848 148.17 22.862C148.17 21.876 148.17 20.7597 148.17 19.513C148.17 18.153 148.17 16.9233 148.17 15.824C148.17 14.7247 148.17 13.6027 148.17 12.458L154.426 11.387C154.426 12.2937 154.426 13.1663 154.426 14.005C154.426 14.8323 154.426 15.688 154.426 16.572C154.426 17.456 154.426 18.4363 154.426 19.513V27.537C154.426 28.455 154.579 29.1633 154.885 29.662C155.191 30.1493 155.712 30.393 156.449 30.393C156.777 30.393 157.134 30.3307 157.52 30.206C157.916 30.0813 158.319 29.8887 158.727 29.628L159.05 34.677C158.721 34.8583 158.307 35.0113 157.809 35.136C157.321 35.2607 156.789 35.3513 156.211 35.408C155.644 35.4647 155.089 35.493 154.545 35.493ZM145.688 22.692V17.983H158.999V22.692C157.979 22.692 156.953 22.692 155.922 22.692C154.902 22.692 153.916 22.692 152.964 22.692H150.091H145.688ZM161.555 35C161.555 33.7987 161.555 32.637 161.555 31.515C161.555 30.393 161.555 29.1237 161.555 27.707V26.007C161.555 24.817 161.555 23.7687 161.555 22.862C161.555 21.9553 161.555 21.1167 161.555 20.346C161.555 19.564 161.555 18.7763 161.555 17.983L167.896 17.813C167.896 18.6177 167.896 19.4167 167.896 20.21C167.896 21.0033 167.896 21.8647 167.896 22.794C167.896 23.7233 167.896 24.7943 167.896 26.007V27.707C167.896 29.1237 167.896 30.393 167.896 31.515C167.896 32.637 167.896 33.7987 167.896 35H161.555ZM164.7 16.079C163.578 16.079 162.683 15.824 162.014 15.314C161.357 14.804 161.028 13.9597 161.028 12.781C161.028 11.761 161.357 10.9733 162.014 10.418C162.683 9.85133 163.589 9.568 164.734 9.568C165.879 9.568 166.774 9.86267 167.42 10.452C168.077 11.03 168.406 11.8063 168.406 12.781C168.406 13.9597 168.077 14.804 167.42 15.314C166.763 15.824 165.856 16.079 164.7 16.079Z" fill="white"/>
    <path fill-rule="evenodd" clip-rule="evenodd" d="M32 7H0V37H32V7ZM23 15.0769H9V28.9231H23V15.0769Z" fill="#FF4242"/>
</svg>