<svg width="84" height="102" viewBox="0 0 84 102" fill="none" xmlns="http://www.w3.org/2000/svg">
<mask id="path-1-inside-1" fill="white">
<path d="M0 12.6346L42 0.157959L84 12.6346V56.443C84 66.1409 79.312 75.2406 71.4155 80.8705L42 101.842L12.5845 80.8705C4.68799 75.2406 0 66.1409 0 56.443V12.6346Z"/>
</mask>
<path d="M0 12.6346L-0.569525 10.7174L-2 11.1423V12.6346H0ZM84 12.6346H86V11.1423L84.5695 10.7174L84 12.6346ZM42 0.157959L42.5695 -1.75924L42 -1.92842L41.4305 -1.75924L42 0.157959ZM42 101.842L40.839 103.471L42 104.298L43.161 103.471L42 101.842ZM71.4155 80.8705L70.2545 79.242L71.4155 80.8705ZM82 12.6346V56.443H86V12.6346H82ZM2 56.443V12.6346H-2V56.443H2ZM0.569525 14.5517L42.5695 2.07516L41.4305 -1.75924L-0.569525 10.7174L0.569525 14.5517ZM41.4305 2.07516L83.4305 14.5517L84.5695 10.7174L42.5695 -1.75924L41.4305 2.07516ZM70.2545 79.242L40.839 100.214L43.161 103.471L72.5765 82.4989L70.2545 79.242ZM43.161 100.214L13.7455 79.242L11.4235 82.4989L40.839 103.471L43.161 100.214ZM-2 56.443C-2 66.7874 3.00052 76.4938 11.4235 82.4989L13.7455 79.242C6.37546 73.9875 2 65.4944 2 56.443H-2ZM82 56.443C82 65.4944 77.6245 73.9875 70.2545 79.242L72.5765 82.4989C80.9995 76.4938 86 66.7874 86 56.443H82Z" fill="#655C9C" mask="url(#path-1-inside-1)"/>
<rect x="24.2109" y="36.3376" width="36.6842" height="21.5879" stroke="#00B5B3" stroke-width="2"/>
<path d="M42.553 49.7194L26.0617 36.5264H59.0444L42.553 49.7194Z" stroke="#00B5B3" stroke-width="2"/>
</svg>
