<svg width="124" height="84" viewBox="0 0 124 84" fill="none" xmlns="http://www.w3.org/2000/svg">
<rect x="9.0293" y="1" width="106.6" height="79.6571" fill="white" stroke="#655C9C" stroke-width="2"/>
<path d="M2 71.2856H122.657L122.292 74.2314C121.67 79.2397 117.414 82.9999 112.368 82.9999H12.2894C7.24281 82.9999 2.98706 79.2397 2.36556 74.2314L2 71.2856Z" fill="white" stroke="#655C9C" stroke-width="2"/>
<mask id="path-3-inside-1" fill="white">
<path d="M49 26.1718L63 22L77 26.1718V39.7003C77 43.6433 75.108 47.3408 71.9259 49.6166L63 56L54.0741 49.6166C50.892 47.3408 49 43.6433 49 39.7003V26.1718Z"/>
</mask>
<path d="M49 26.1718L48.4288 24.2551L47 24.6808V26.1718H49ZM77 26.1718H79V24.6808L77.5711 24.2551L77 26.1718ZM63 22L63.5711 20.0833L63 19.9131L62.4289 20.0833L63 22ZM63 56L61.8366 57.6268L63 58.4588L64.1634 57.6268L63 56ZM54.0741 49.6166L55.2376 47.9898L54.0741 49.6166ZM71.9259 49.6166L70.7624 47.9898L71.9259 49.6166ZM75 26.1718V39.7003H79V26.1718H75ZM51 39.7003V26.1718H47V39.7003H51ZM49.5712 28.0885L63.5711 23.9167L62.4289 20.0833L48.4288 24.2551L49.5712 28.0885ZM62.4289 23.9167L76.4289 28.0885L77.5711 24.2551L63.5711 20.0833L62.4289 23.9167ZM70.7624 47.9898L61.8366 54.3732L64.1634 57.6268L73.0893 51.2434L70.7624 47.9898ZM64.1634 54.3732L55.2376 47.9898L52.9107 51.2434L61.8366 57.6268L64.1634 54.3732ZM47 39.7003C47 44.2827 49.1986 48.5886 52.9107 51.2434L55.2376 47.9898C52.5854 46.093 51 43.0039 51 39.7003H47ZM75 39.7003C75 43.0039 73.4146 46.093 70.7624 47.9898L73.0893 51.2434C76.8014 48.5886 79 44.2827 79 39.7003H75Z" fill="#00B5B3" mask="url(#path-3-inside-1)"/>
</svg>
