<svg width="84" height="102" viewBox="0 0 84 102" fill="none" xmlns="http://www.w3.org/2000/svg">
<mask id="path-1-inside-1" fill="white">
<path d="M0 12.4766L42 0L84 12.4766V56.285C84 65.983 79.312 75.0827 71.4155 80.7125L42 101.684L12.5845 80.7125C4.68799 75.0827 0 65.983 0 56.285V12.4766Z"/>
</mask>
<path d="M0 12.4766L-0.569525 10.5594L-2 10.9843V12.4766H0ZM84 12.4766H86V10.9843L84.5695 10.5594L84 12.4766ZM42 0L42.5695 -1.9172L42 -2.08638L41.4305 -1.9172L42 0ZM42 101.684L40.839 103.313L42 104.14L43.161 103.313L42 101.684ZM71.4155 80.7125L70.2545 79.084L71.4155 80.7125ZM82 12.4766V56.285H86V12.4766H82ZM2 56.285V12.4766H-2V56.285H2ZM0.569525 14.3938L42.5695 1.9172L41.4305 -1.9172L-0.569525 10.5594L0.569525 14.3938ZM41.4305 1.9172L83.4305 14.3938L84.5695 10.5594L42.5695 -1.9172L41.4305 1.9172ZM70.2545 79.084L40.839 100.056L43.161 103.313L72.5765 82.341L70.2545 79.084ZM43.161 100.056L13.7455 79.084L11.4235 82.341L40.839 103.313L43.161 100.056ZM-2 56.285C-2 66.6295 3.00052 76.3359 11.4235 82.341L13.7455 79.084C6.37546 73.8295 2 65.3364 2 56.285H-2ZM82 56.285C82 65.3364 77.6245 73.8295 70.2545 79.084L72.5765 82.341C80.9995 76.3359 86 66.6295 86 56.285H82Z" fill="#655C9C" mask="url(#path-1-inside-1)"/>
<path d="M57.1163 21.1746L55.8623 22.595C55.853 22.605 55.8438 22.6151 55.8347 22.6254L53.3257 25.4672C52.9688 25.8714 52.8378 26.4203 52.982 26.9073L53.9958 30.3308C54.1399 30.8177 54.5374 31.1686 55.0384 31.2514L58.5612 31.8331C59.0622 31.9158 59.5907 31.7178 59.9476 31.3136L63.7373 27.022C64.7051 29.9142 64.1472 33.2293 61.9835 35.6799C59.8505 38.0959 56.6904 39.0674 53.7368 38.5176L37.2489 57.1925C38.1611 60.0556 37.5888 63.3123 35.4554 65.7287C33.2914 68.1797 30.0704 69.144 27.0802 68.5415L28.2455 67.2216L28.2592 67.2063L30.7682 64.3645C31.1251 63.9603 31.2561 63.4114 31.1119 62.9245L30.0981 59.5009C29.9539 59.014 29.5565 58.6631 29.0554 58.5804L25.5327 57.9986C25.0316 57.9159 24.5032 58.1139 24.1463 58.5181L20.4583 62.6951C19.4899 59.8026 20.0477 56.4869 22.2117 54.0359C24.2622 51.7134 27.2618 50.7258 30.1148 51.1412L46.8471 32.1895C46.0807 29.4097 46.6889 26.3101 48.7398 23.9871C50.9041 21.5358 54.1257 20.5715 57.1163 21.1746Z" stroke="#00B5B3" stroke-width="2"/>
</svg>
