<?xml version="1.0" standalone="no"?>
<!DOCTYPE svg PUBLIC "-//W3C//DTD SVG 20010904//EN"
 "http://www.w3.org/TR/2001/REC-SVG-20010904/DTD/svg10.dtd">
<svg version="1.0" xmlns="http://www.w3.org/2000/svg"
 width="70.000000pt" height="70.000000pt" viewBox="0 0 70.000000 70.000000"
 preserveAspectRatio="xMidYMid meet">
<metadata>
Created by potrace 1.11, written by Peter Selinger 2001-2013
</metadata>
<g transform="translate(0.000000,70.000000) scale(0.100000,-0.100000)"
fill="#000000" stroke="none">
<path d="M0 350 l0 -350 350 0 350 0 0 350 0 350 -350 0 -350 0 0 -350z m366
199 c-21 -99 -22 -91 10 -87 29 3 28 3 48 91 6 24 11 27 46 27 45 0 44 3 26
-67 l-14 -53 39 0 c38 0 39 -1 39 -35 0 -35 0 -35 -45 -35 -40 0 -47 -3 -55
-26 -17 -43 -13 -50 30 -48 40 1 40 1 40 -37 l0 -38 -52 -3 -52 -3 -11 -50
c-10 -50 -10 -50 -53 -53 -23 -2 -42 -2 -42 0 0 2 7 27 14 56 l14 52 -28 0
c-26 0 -29 -4 -41 -55 l-12 -55 -43 0 -42 0 14 53 c7 28 14 53 14 55 0 1 -16
2 -35 2 -34 0 -35 1 -35 41 l0 42 44 -5 c39 -5 45 -3 50 16 13 47 8 56 -29 56
-33 0 -35 2 -35 34 0 34 1 35 48 38 l47 3 12 47 c15 63 18 66 59 66 35 0 36
-1 30 -29z"/>
<path d="M327 383 c-2 -5 -7 -20 -11 -35 -6 -26 -4 -28 23 -28 28 0 40 18 41
58 0 13 -46 17 -53 5z"/>
</g>
</svg>
