<svg width="75" height="63" viewBox="0 0 75 63" fill="none" xmlns="http://www.w3.org/2000/svg">
<line x1="19.0166" y1="34.6089" x2="59.7666" y2="34.6089" stroke="white" stroke-width="2"/>
<path d="M49.2394 21.5601H16.2998L21.3076 45.0753H58.5882L60.5356 33.3177" stroke="white" stroke-width="2"/>
<mask id="path-3-inside-1" fill="white">
<path d="M46.8623 4.2043L60.7852 0L74.7081 4.2043V8.86651C74.7081 18.4822 70.0988 27.5152 62.3128 33.158L60.7852 34.2651L59.2576 33.158C51.4716 27.5152 46.8623 18.4822 46.8623 8.8665V4.2043Z"/>
</mask>
<path d="M46.8623 4.2043L46.2841 2.28969L44.8623 2.71904V4.2043H46.8623ZM74.7081 4.2043H76.7081V2.71904L75.2863 2.28969L74.7081 4.2043ZM60.7852 0L61.3634 -1.91461L60.7852 -2.0892L60.2071 -1.91461L60.7852 0ZM60.7852 34.2651L59.6116 35.8845L60.7852 36.7351L61.9589 35.8845L60.7852 34.2651ZM59.2576 33.158L58.084 34.7774L59.2576 33.158ZM72.7081 4.2043V8.86651H76.7081V4.2043H72.7081ZM48.8623 8.8665V4.2043H44.8623V8.8665H48.8623ZM47.4405 6.11891L61.3634 1.91461L60.2071 -1.91461L46.2841 2.28969L47.4405 6.11891ZM60.2071 1.91461L74.13 6.11891L75.2863 2.28969L61.3634 -1.91461L60.2071 1.91461ZM61.1392 31.5385L59.6116 32.6456L61.9589 35.8845L63.4865 34.7774L61.1392 31.5385ZM61.9589 32.6456L60.4313 31.5385L58.084 34.7774L59.6116 35.8845L61.9589 32.6456ZM44.8623 8.8665C44.8623 19.1233 49.7789 28.7585 58.084 34.7774L60.4313 31.5385C53.1643 26.272 48.8623 17.8412 48.8623 8.8665H44.8623ZM72.7081 8.86651C72.7081 17.8412 68.4061 26.272 61.1392 31.5385L63.4865 34.7774C71.7915 28.7585 76.7081 19.1233 76.7081 8.86651H72.7081Z" fill="white" mask="url(#path-3-inside-1)"/>
<path d="M0.593077 7.35044L11.4962 9.62837L16.4295 21.7971" stroke="white" stroke-width="2"/>
<path d="M32.2794 58.1161C32.2794 59.9656 30.7608 61.4833 28.8648 61.4833C26.9687 61.4833 25.4502 59.9656 25.4502 58.1161C25.4502 56.2667 26.9687 54.749 28.8648 54.749C30.7608 54.749 32.2794 56.2667 32.2794 58.1161Z" stroke="white" stroke-width="2"/>
<path d="M56.0499 58.1161C56.0499 59.9656 54.5313 61.4833 52.6353 61.4833C50.7392 61.4833 49.2207 59.9656 49.2207 58.1161C49.2207 56.2667 50.7392 54.749 52.6353 54.749C54.5313 54.749 56.0499 56.2667 56.0499 58.1161Z" stroke="white" stroke-width="2"/>
<path d="M54.9415 45.0752H57.0791C58.5634 45.0752 59.7666 46.2784 59.7666 47.7627V47.7627C59.7666 49.2469 58.5634 50.4501 57.0791 50.4501H21.7333" stroke="white" stroke-width="2"/>
<path d="M55.0123 13.9069L59.4604 18.1405L67.2373 11.4219" stroke="white" stroke-width="2"/>
</svg>
