<svg width="70" height="64" viewBox="0 0 70 64" fill="none" xmlns="http://www.w3.org/2000/svg">
<path d="M27.1663 4.70312H52.9746V62.4834H13.5829V33.5933" stroke="white" stroke-width="2"/>
<line x1="27.167" y1="14.6206" x2="45.5045" y2="14.6206" stroke="white" stroke-width="2"/>
<line y1="-1" x2="24.45" y2="-1" transform="matrix(1 -1.36001e-07 -5.61961e-08 -1 21.0537 36.2808)" stroke="white" stroke-width="2"/>
<line x1="23.0918" y1="25.4873" x2="45.5043" y2="25.4873" stroke="white" stroke-width="2"/>
<rect width="10.8667" height="14.781" rx="5.43333" transform="matrix(-1 0 0 1 68.5957 41.6558)" stroke="white" stroke-width="2"/>
<line y1="-1" x2="10.7498" y2="-1" transform="matrix(-4.41865e-08 1 1 4.32414e-08 63.8418 51.7339)" stroke="white" stroke-width="2"/>
<rect width="13.5833" height="14.781" transform="matrix(-1 0 0 1 40.0713 47.7021)" stroke="white" stroke-width="2"/>
<line y1="-1" x2="14.781" y2="-1" transform="matrix(3.04222e-08 1 1 -6.28057e-08 33.958 47.7021)" stroke="white" stroke-width="2"/>
<mask id="path-9-inside-1" fill="white">
<path d="M0 4.2043L13.9229 0L27.8458 4.2043V8.86651C27.8458 18.4822 23.2365 27.5152 15.4505 33.158L13.9229 34.2651L12.3953 33.158C4.60931 27.5152 0 18.4822 0 8.8665V4.2043Z"/>
</mask>
<path d="M0 4.2043L-0.578155 2.28969L-2 2.71904V4.2043H0ZM27.8458 4.2043H29.8458V2.71904L28.424 2.28969L27.8458 4.2043ZM13.9229 0L14.5011 -1.91461L13.9229 -2.0892L13.3448 -1.91461L13.9229 0ZM13.9229 34.2651L12.7493 35.8845L13.9229 36.7351L15.0966 35.8845L13.9229 34.2651ZM12.3953 33.158L11.2217 34.7774L12.3953 33.158ZM25.8458 4.2043V8.86651H29.8458V4.2043H25.8458ZM2 8.8665V4.2043H-2V8.8665H2ZM0.578155 6.11891L14.5011 1.91461L13.3448 -1.91461L-0.578155 2.28969L0.578155 6.11891ZM13.3448 1.91461L27.2677 6.11891L28.424 2.28969L14.5011 -1.91461L13.3448 1.91461ZM14.2769 31.5385L12.7493 32.6456L15.0966 35.8845L16.6242 34.7774L14.2769 31.5385ZM15.0966 32.6456L13.569 31.5385L11.2217 34.7774L12.7493 35.8845L15.0966 32.6456ZM-2 8.8665C-2 19.1233 2.9166 28.7585 11.2217 34.7774L13.569 31.5385C6.30203 26.272 2 17.8412 2 8.8665H-2ZM25.8458 8.86651C25.8458 17.8412 21.5438 26.272 14.2769 31.5385L16.6242 34.7774C24.9292 28.7585 29.8458 19.1233 29.8458 8.86651H25.8458Z" fill="white" mask="url(#path-9-inside-1)"/>
<path d="M8.15 13.9069L12.598 18.1405L20.375 11.4219" stroke="white" stroke-width="2"/>
</svg>
