<svg width="80" height="63" viewBox="0 0 80 63" fill="none" xmlns="http://www.w3.org/2000/svg">
<path d="M52.2965 11.5459H4.07572V56.3709H34.9778H65.8799V32.9549" stroke="white" stroke-width="2"/>
<path d="M62.34 61.4833C65.3147 61.4833 67.8781 59.5255 68.7217 56.7646H1.2323C2.07591 59.5255 4.63934 61.4833 7.61406 61.4833H62.34Z" stroke="white" stroke-width="2"/>
<mask id="path-3-inside-1" fill="white">
<path d="M51.6172 4.2043L65.5401 0L79.463 4.2043V8.8665C79.463 18.4822 74.8537 27.5152 67.0677 33.158L65.5401 34.2651L61.2931 31.1871C55.2153 26.7824 51.6172 19.7311 51.6172 12.225V4.2043Z"/>
</mask>
<path d="M51.6172 4.2043L51.039 2.28969L49.6172 2.71904V4.2043H51.6172ZM79.463 4.2043H81.463V2.71904L80.0412 2.28969L79.463 4.2043ZM65.5401 0L66.1183 -1.91461L65.5401 -2.0892L64.9619 -1.91461L65.5401 0ZM65.5401 34.2651L64.3665 35.8845L65.5401 36.7351L66.7138 35.8845L65.5401 34.2651ZM67.0677 33.158L68.2414 34.7774L67.0677 33.158ZM77.463 4.2043V8.8665H81.463V4.2043H77.463ZM52.1953 6.11891L66.1183 1.91461L64.9619 -1.91461L51.039 2.28969L52.1953 6.11891ZM64.9619 1.91461L78.8849 6.11891L80.0412 2.28969L66.1183 -1.91461L64.9619 1.91461ZM65.8941 31.5385L64.3665 32.6456L66.7138 35.8845L68.2414 34.7774L65.8941 31.5385ZM66.7138 32.6456L62.4667 29.5677L60.1194 32.8065L64.3665 35.8845L66.7138 32.6456ZM53.6172 12.225V4.2043H49.6172V12.225H53.6172ZM62.4667 29.5677C56.908 25.5391 53.6172 19.0901 53.6172 12.225H49.6172C49.6172 20.3722 53.5225 28.0256 60.1194 32.8065L62.4667 29.5677ZM77.463 8.8665C77.463 17.8412 73.161 26.272 65.8941 31.5385L68.2414 34.7774C76.5464 28.7585 81.463 19.1233 81.463 8.8665H77.463Z" fill="white" mask="url(#path-3-inside-1)"/>
<path d="M31.6047 32.5447C31.6047 34.3716 33.1048 35.8711 34.9781 35.8711C36.8514 35.8711 38.3516 34.3716 38.3516 32.5447C38.3516 30.7177 36.8514 29.2183 34.9781 29.2183C33.1048 29.2183 31.6047 30.7177 31.6047 32.5447Z" stroke="white" stroke-width="2"/>
<path d="M26.4886 47.5595C26.4886 42.7807 30.2895 38.9067 34.9782 38.9067C39.6669 38.9067 43.4678 42.7807 43.4678 47.5595" stroke="white" stroke-width="2"/>
<path d="M59.7672 13.9069L64.2152 18.1405L71.9922 11.4219" stroke="white" stroke-width="2"/>
<rect width="30.5625" height="22.8434" transform="matrix(-1 0 0 1 50.2588 24.187)" stroke="white" stroke-width="2"/>
</svg>
