<svg width="98" height="97" viewBox="0 0 98 97" fill="none" xmlns="http://www.w3.org/2000/svg">
<path d="M43.5214 4.20355C46.753 1.72406 51.247 1.72406 54.4786 4.20355L60.6379 8.92937C62.1161 10.0636 63.9099 10.711 65.7717 10.7824L73.5376 11.0801C77.6352 11.2372 81.1086 14.1442 81.9849 18.1501L83.6012 25.5383C84.0044 27.3811 84.9763 29.0506 86.3798 30.311L92.0146 35.3714C95.0932 38.1361 95.89 42.6437 93.9458 46.2962L90.4215 52.9175C89.5313 54.5899 89.1916 56.5005 89.4508 58.3772L90.4761 65.8035C91.04 69.8878 88.7565 73.833 84.9341 75.3784L77.8134 78.2572C76.076 78.9596 74.6012 80.1868 73.5948 81.7676L69.4765 88.2361C67.2848 91.6786 63.0511 93.2155 59.1615 91.9807L51.7231 89.6194C49.9513 89.057 48.0487 89.057 46.2769 89.6194L38.8385 91.9807C34.9489 93.2155 30.7152 91.6786 28.5235 88.2361L24.4052 81.7676C23.3988 80.1868 21.924 78.9596 20.1867 78.2572L13.066 75.3784C9.24347 73.833 6.95995 69.8878 7.52388 65.8035L8.54925 58.3772C8.80837 56.5005 8.46866 54.5899 7.5785 52.9175L4.05418 46.2962C2.11002 42.6437 2.90682 38.1361 5.98536 35.3714L11.6202 30.311C13.0237 29.0506 13.9956 27.3811 14.3988 25.5383L16.0151 18.1501C16.8914 14.1442 20.3648 11.2372 24.4624 11.0801L32.2283 10.7824C34.0901 10.711 35.8839 10.0636 37.3621 8.92936L43.5214 4.20355Z" fill="#F5F5F5" stroke="#655C9C" stroke-width="2"/>
<path d="M63.1748 35.3646L35.6123 62.6459" stroke="#FF4242" stroke-width="2"/>
<ellipse cx="39.1564" cy="39.6522" rx="4.33125" ry="4.28705" fill="#F5F5F5" stroke="#FF4242" stroke-width="2"/>
<ellipse cx="58.8439" cy="58.3586" rx="4.33125" ry="4.28705" fill="#F5F5F5" stroke="#FF4242" stroke-width="2"/>
</svg>
