<svg width="85" height="87" viewBox="0 0 85 87" fill="none" xmlns="http://www.w3.org/2000/svg">
<path fill-rule="evenodd" clip-rule="evenodd" d="M43.9877 20.0847H83.5742V9.35214C83.5742 4.93387 79.9925 1.35214 75.5742 1.35214H39.7475C42.2706 2.69798 43.9877 5.35614 43.9877 8.41536V20.0847Z" fill="#F5F5F5"/>
<path d="M83.5742 20.0847V21.0847H84.5742V20.0847H83.5742ZM43.9877 20.0847H42.9877V21.0847H43.9877V20.0847ZM39.7475 1.35214V0.352144L39.2769 2.23446L39.7475 1.35214ZM83.5742 19.0847H43.9877V21.0847H83.5742V19.0847ZM82.5742 9.35214V20.0847H84.5742V9.35214H82.5742ZM75.5742 2.35214C79.4402 2.35214 82.5742 5.48615 82.5742 9.35214H84.5742C84.5742 4.38158 80.5448 0.352144 75.5742 0.352144V2.35214ZM39.7475 2.35214H75.5742V0.352144H39.7475V2.35214ZM39.2769 2.23446C41.4871 3.41343 42.9877 5.73993 42.9877 8.41536H44.9877C44.9877 4.97236 43.054 1.98254 40.2182 0.469824L39.2769 2.23446ZM42.9877 8.41536V20.0847H44.9877V8.41536H42.9877Z" fill="#655C9C"/>
<path d="M68.348 1.35205H17.3516C11.8287 1.35205 7.35156 5.8292 7.35156 11.352V82.0061L12.0064 85.6483H58.3811C63.9039 85.6483 68.3811 81.1712 68.3811 75.6483V9.19669C68.3811 5.28154 71.2356 1.95106 75.1046 1.35205H68.348Z" fill="#F5F5F5" stroke="#655C9C" stroke-width="2"/>
<ellipse cx="49.1683" cy="63.2734" rx="7.93982" ry="7.80521" stroke="#00B5B3" stroke-width="2"/>
<path fill-rule="evenodd" clip-rule="evenodd" d="M47.5046 66.9158H1V75.6483C1 81.1712 5.47715 85.6483 11 85.6483H53.0852V85.558C49.7789 83.9265 47.5046 80.5214 47.5046 76.5851V66.9158Z" fill="#F5F5F5"/>
<path d="M1 66.9158V65.9158H0V66.9158H1ZM47.5046 66.9158H48.5046V65.9158H47.5046V66.9158ZM53.0852 85.6483V86.6483H54.0852V85.6483H53.0852ZM53.0852 85.558H54.0852V84.9364L53.5277 84.6613L53.0852 85.558ZM1 67.9158H47.5046V65.9158H1V67.9158ZM2 75.6483V66.9158H0V75.6483H2ZM11 84.6483C6.02944 84.6483 2 80.6189 2 75.6483H0C0 81.7235 4.92486 86.6483 11 86.6483V84.6483ZM53.0852 84.6483H11V86.6483H53.0852V84.6483ZM52.0852 85.558V85.6483H54.0852V85.558H52.0852ZM53.5277 84.6613C50.5497 83.1917 48.5046 80.1263 48.5046 76.5851H46.5046C46.5046 80.9165 49.0082 84.6613 52.6427 86.4548L53.5277 84.6613ZM48.5046 76.5851V66.9158H46.5046V76.5851H48.5046Z" fill="#655C9C"/>
<path d="M58.167 33.6136L14.7627 33.6136" stroke="#00B5B3" stroke-width="2"/>
<path d="M58.167 46.1019L14.7627 46.1019" stroke="#00B5B3" stroke-width="2"/>
<path d="M58.167 20.0847L14.7627 20.0847" stroke="#00B5B3" stroke-width="2"/>
</svg>
