<?xml version="1.0" encoding="utf-8"?>
<!-- Generator: Adobe Illustrator 24.0.1, SVG Export Plug-In . SVG Version: 6.00 Build 0)  -->
<svg version="1.1" id="Layer_1" xmlns="http://www.w3.org/2000/svg" xmlns:xlink="http://www.w3.org/1999/xlink" x="0px" y="0px"
	 viewBox="0 0 68.5 68.2" style="enable-background:new 0 0 68.5 68.2;" xml:space="preserve">
<style type="text/css">
	.st0{fill:none;stroke:#655C9C;stroke-width:1.6;}
	.st1{fill:#FFFFFF;filter:url(#Adobe_OpacityMaskFilter);}
	.st2{mask:url(#path-2-inside-1_1_);fill:#FFFFFF;stroke:#00B5B3;stroke-width:3.2;}
</style>
<path class="st0" d="M52.5,59.9c-13,11-32.6,9.3-43.8-3.9c-11.2-13.2-9.8-32.8,3.1-43.9c13-11,32.6-9.3,43.8,3.9
	C66.9,29.2,65.5,48.9,52.5,59.9z"/>
<defs>
	<filter id="Adobe_OpacityMaskFilter" filterUnits="userSpaceOnUse" x="28.7" y="-2" width="41.1" height="40.1">
		<feColorMatrix  type="matrix" values="1 0 0 0 0  0 1 0 0 0  0 0 1 0 0  0 0 0 1 0"/>
	</filter>
</defs>
<mask maskUnits="userSpaceOnUse" x="28.7" y="-2" width="41.1" height="40.1" id="path-2-inside-1_1_">
	<path class="st1" d="M67.9,27.5c-1.5-6.4-4.5-12.2-8.9-17C54.5,5.6,48.9,2,42.7,0L31.1,35.9L67.9,27.5z"/>
</mask>
<path class="st2" d="M67.9,27.5c-1.5-6.4-4.5-12.2-8.9-17C54.5,5.6,48.9,2,42.7,0L31.1,35.9L67.9,27.5z"/>
</svg>
