<svg width="49" height="69" viewBox="0 0 49 69" fill="none" xmlns="http://www.w3.org/2000/svg">
<rect x="0.8" y="7.51484" width="47.2509" height="60.6849" stroke="#655C9C" stroke-width="1.6"/>
<path d="M12.2173 15.5535L10.4309 7.51484H38.4232L36.6369 15.5535H12.2173Z" stroke="#655C9C" stroke-width="1.6"/>
<line x1="10.5039" y1="29.1194" x2="38.3489" y2="29.1194" stroke="#00B5B3" stroke-width="1.6"/>
<line x1="10.5039" y1="40.9563" x2="38.3489" y2="40.9563" stroke="#00B5B3" stroke-width="1.6"/>
<line x1="10.5039" y1="51.948" x2="38.3489" y2="51.948" stroke="#00B5B3" stroke-width="1.6"/>
<path fill-rule="evenodd" clip-rule="evenodd" d="M29.1323 7.95507C29.2104 7.61067 29.2515 7.25228 29.2515 6.88427C29.2515 4.21907 27.091 2.0585 24.4258 2.0585C21.7606 2.0585 19.6 4.21907 19.6 6.88427C19.6 7.25228 19.6412 7.61067 19.7192 7.95507H18.0888C18.0304 7.60684 18 7.2491 18 6.88427C18 3.33541 20.8769 0.458496 24.4258 0.458496C27.9746 0.458496 30.8515 3.33541 30.8515 6.88427C30.8515 7.2491 30.8211 7.60684 30.7627 7.95507H29.1323Z" fill="#655C9C"/>
</svg>
