<svg width="69" height="71" viewBox="0 0 69 71" fill="none" xmlns="http://www.w3.org/2000/svg">
<path d="M54.4237 13.0181L54.6257 12.244L54.1821 12.1283L53.858 12.4524L54.4237 13.0181ZM48.9874 18.4544L48.4217 17.8887L47.856 18.4544L48.4217 19.0201L48.9874 18.4544ZM53.9376 34.3247L53.1505 34.1816L53.0497 34.7359L53.5376 35.0175L53.9376 34.3247ZM58.5769 37.0032L58.1769 37.6961L58.6184 37.9509L59.0359 37.6585L58.5769 37.0032ZM55.9689 41.9691L56.7689 41.9743L56.7719 41.509L56.3689 41.2763L55.9689 41.9691ZM52.0316 39.696L52.4316 39.0031L51.7236 38.5944L51.3303 39.3111L52.0316 39.696ZM49.5686 43.1428L48.9771 42.6042L48.541 43.0831L48.9186 43.6093L49.5686 43.1428ZM64.4744 63.9128L64.9408 64.5628L65.5908 64.0963L65.1243 63.4464L64.4744 63.9128ZM57.3855 69.0002L56.7355 69.4667L57.202 70.1166L57.8519 69.6502L57.3855 69.0002ZM42.2962 47.9746L42.9461 47.5081L42.5961 47.0203L42.0299 47.2202L42.2962 47.9746ZM37.6454 48.9434L37.5879 48.1454L36.8454 48.199V48.9434H37.6454ZM37.6454 53.9402H36.8454V54.446L37.3024 54.6629L37.6454 53.9402ZM32.4101 53.9417L32.7536 54.6642L33.2101 54.4471V53.9417H32.4101ZM32.4101 48.5573H33.2101V47.9168L32.5851 47.7767L32.4101 48.5573ZM24.1335 44.1784L24.6796 43.5937L24.1145 43.066L23.5678 43.6127L24.1335 44.1784ZM13.889 54.4229L13.3233 53.8572L12.9991 54.1814L13.1149 54.6251L13.889 54.4229ZM10.1325 50.2533L9.85035 51.0019L10.3332 51.1839L10.6981 50.819L10.1325 50.2533ZM20.6627 39.723L21.2284 40.2887L21.6536 39.8635L21.3634 39.3369L20.6627 39.723ZM19.2121 25.9293L19.9781 26.1604L20.1611 25.5535L19.6121 25.2365L19.2121 25.9293ZM10.5111 20.9058L10.9111 20.2129L10.4789 19.9634L10.0648 20.2418L10.5111 20.9058ZM13.2136 15.9944L12.4139 15.9737L12.4015 16.4493L12.8136 16.6872L13.2136 15.9944ZM21.6644 20.8735L21.2644 21.5663L21.9001 21.9333L22.3203 21.3315L21.6644 20.8735ZM44.3901 15.1255L44.0296 15.8396L44.5464 16.1006L44.9558 15.6912L44.3901 15.1255ZM50.2534 9.26219L50.8191 9.82788L51.1841 9.46292L51.002 8.97997L50.2534 9.26219ZM55.9705 14.0157C59.7856 14.0157 62.8783 10.9229 62.8783 7.10784H61.2783C61.2783 10.0393 58.9019 12.4157 55.9705 12.4157V14.0157ZM54.2216 13.7922C54.7811 13.9382 55.3673 14.0157 55.9705 14.0157V12.4157C55.5048 12.4157 55.0543 12.3559 54.6257 12.244L54.2216 13.7922ZM53.858 12.4524L48.4217 17.8887L49.5531 19.02L54.9893 13.5838L53.858 12.4524ZM48.4217 19.0201C51.5151 22.1132 53.427 26.3841 53.427 31.1031H55.027C55.027 25.9427 52.9342 21.2695 49.5531 17.8887L48.4217 19.0201ZM53.427 31.1031C53.427 32.1547 53.3321 33.1835 53.1505 34.1816L54.7247 34.4679C54.9233 33.3758 55.027 32.2512 55.027 31.1031H53.427ZM53.5376 35.0175L58.1769 37.6961L58.9769 36.3104L54.3376 33.6319L53.5376 35.0175ZM59.0359 37.6585C59.8968 37.0555 60.9442 36.7019 62.0766 36.7019V35.1019C60.6053 35.1019 59.2393 35.5627 58.118 36.3479L59.0359 37.6585ZM62.0766 36.7019C65.008 36.7019 67.3844 39.0783 67.3844 42.0097H68.9844C68.9844 38.1946 65.8917 35.1019 62.0766 35.1019V36.7019ZM67.3844 42.0097C67.3844 44.9411 65.008 47.3175 62.0766 47.3175V48.9175C65.8917 48.9175 68.9844 45.8248 68.9844 42.0097H67.3844ZM62.0766 47.3175C59.1451 47.3175 56.7687 44.9411 56.7687 42.0097H55.1687C55.1687 45.8248 58.2615 48.9175 62.0766 48.9175V47.3175ZM56.7687 42.0097C56.7687 41.998 56.7688 41.9862 56.7689 41.9743L55.1689 41.9639C55.1688 41.9791 55.1687 41.9944 55.1687 42.0097H56.7687ZM56.3689 41.2763L52.4316 39.0031L51.6316 40.3888L55.5689 42.6619L56.3689 41.2763ZM51.3303 39.3111C50.6767 40.5021 49.8852 41.607 48.9771 42.6042L50.1601 43.6815C51.1526 42.5915 52.0181 41.3835 52.733 40.0808L51.3303 39.3111ZM48.9186 43.6093L63.8244 64.3793L65.1243 63.4464L50.2185 42.6764L48.9186 43.6093ZM64.0079 63.2629L56.9191 68.3503L57.8519 69.6502L64.9408 64.5628L64.0079 63.2629ZM58.0354 68.5338L42.9461 47.5081L41.6463 48.441L56.7355 69.4667L58.0354 68.5338ZM42.0299 47.2202C40.6249 47.7162 39.1353 48.0338 37.5879 48.1454L37.703 49.7413C39.3946 49.6193 41.0246 49.2719 42.5625 48.7289L42.0299 47.2202ZM38.4454 53.9402V48.9434H36.8454V53.9402H38.4454ZM41.9371 59.461C41.9371 56.7035 40.3214 54.325 37.9885 53.2175L37.3024 54.6629C39.0982 55.5154 40.3371 57.3443 40.3371 59.461H41.9371ZM35.0293 66.3688C38.8444 66.3688 41.9371 63.2761 41.9371 59.461H40.3371C40.3371 62.3924 37.9607 64.7688 35.0293 64.7688V66.3688ZM28.1215 59.461C28.1215 63.2761 31.2142 66.3688 35.0293 66.3688V64.7688C32.0979 64.7688 29.7215 62.3924 29.7215 59.461H28.1215ZM32.0667 53.2191C29.7356 54.3273 28.1215 56.7048 28.1215 59.461H29.7215C29.7215 57.3453 30.9592 55.5172 32.7536 54.6642L32.0667 53.2191ZM31.6101 48.5573V53.9417H33.2101V48.5573H31.6101ZM32.5851 47.7767C29.5728 47.1014 26.86 45.6301 24.6796 43.5937L23.5875 44.763C25.9704 46.9886 28.9376 48.5987 32.2352 49.3379L32.5851 47.7767ZM23.5678 43.6127L13.3233 53.8572L14.4546 54.9886L24.6992 44.744L23.5678 43.6127ZM13.1149 54.6251C13.2269 55.0539 13.2868 55.5047 13.2868 55.9706H14.8868C14.8868 55.3671 14.8092 54.7805 14.663 54.2208L13.1149 54.6251ZM13.2868 55.9706C13.2868 58.9021 10.9104 61.2785 7.97892 61.2785V62.8785C11.794 62.8785 14.8868 59.7857 14.8868 55.9706H13.2868ZM7.97892 61.2785C5.04748 61.2785 2.67108 58.9021 2.67108 55.9706H1.07108C1.07108 59.7857 4.16382 62.8785 7.97892 62.8785V61.2785ZM2.67108 55.9706C2.67108 53.0392 5.04748 50.6628 7.97892 50.6628V49.0628C4.16383 49.0628 1.07108 52.1555 1.07108 55.9706H2.67108ZM7.97892 50.6628C8.63912 50.6628 9.2694 50.783 9.85035 51.0019L10.4146 49.5047C9.65604 49.2188 8.83478 49.0628 7.97892 49.0628V50.6628ZM10.6981 50.819L21.2284 40.2887L20.097 39.1573L9.56678 49.6876L10.6981 50.819ZM21.3634 39.3369C20.0182 36.8956 19.2525 34.09 19.2525 31.1031H17.6525C17.6525 34.3668 18.4899 37.4373 19.9621 40.1091L21.3634 39.3369ZM19.2525 31.1031C19.2525 29.3832 19.5063 27.7241 19.9781 26.1604L18.4462 25.6983C17.9298 27.4102 17.6525 29.225 17.6525 31.1031H19.2525ZM19.6121 25.2365L10.9111 20.2129L10.1111 21.5986L18.8121 26.6221L19.6121 25.2365ZM7.10784 22.741C8.53164 22.741 9.85706 22.3094 10.9574 21.5697L10.0648 20.2418C9.22005 20.8097 8.20385 21.141 7.10784 21.141V22.741ZM0.2 15.8331C0.2 19.6482 3.29274 22.741 7.10784 22.741V21.141C4.1764 21.141 1.8 18.7646 1.8 15.8331H0.2ZM7.10784 8.92531C3.29274 8.92531 0.2 12.0181 0.2 15.8331H1.8C1.8 12.9017 4.1764 10.5253 7.10784 10.5253V8.92531ZM14.0157 15.8331C14.0157 12.0181 10.9229 8.92531 7.10784 8.92531V10.5253C10.0393 10.5253 12.4157 12.9017 12.4157 15.8331H14.0157ZM14.0133 16.0151C14.0149 15.9546 14.0157 15.894 14.0157 15.8331H12.4157C12.4157 15.8801 12.4151 15.927 12.4139 15.9737L14.0133 16.0151ZM12.8136 16.6872L21.2644 21.5663L22.0644 20.1807L13.6136 15.3016L12.8136 16.6872ZM22.3203 21.3315C25.4101 16.9073 30.5373 14.0158 36.3397 14.0158V12.4158C29.9925 12.4158 24.3847 15.581 21.0085 20.4154L22.3203 21.3315ZM36.3397 14.0158C39.1074 14.0158 41.7191 14.6732 44.0296 15.8396L44.7507 14.4113C42.2217 13.1346 39.3635 12.4158 36.3397 12.4158V14.0158ZM44.9558 15.6912L50.8191 9.82788L49.6877 8.69651L43.8244 14.5598L44.9558 15.6912ZM49.0626 7.10784C49.0626 7.96404 49.2188 8.78562 49.5049 9.54441L51.002 8.97997C50.7829 8.39883 50.6626 7.7683 50.6626 7.10784H49.0626ZM55.9705 0.2C52.1554 0.2 49.0626 3.29274 49.0626 7.10784H50.6626C50.6626 4.1764 53.039 1.8 55.9705 1.8V0.2ZM62.8783 7.10784C62.8783 3.29274 59.7856 0.2 55.9705 0.2V1.8C58.9019 1.8 61.2783 4.1764 61.2783 7.10784H62.8783Z" fill="#655C9C"/>
<circle cx="35.9032" cy="30.6673" r="11.4157" stroke="#655C9C" stroke-width="1.6"/>
<path d="M37.0809 32.8414H34.2977L33.8594 24.0576H37.5193L37.0809 32.8414Z" fill="#00B5B3"/>
<path d="M37.5193 35.9523C37.5193 36.9629 36.7 37.7822 35.6893 37.7822C34.6787 37.7822 33.8594 36.9629 33.8594 35.9523C33.8594 34.9416 34.6787 34.1223 35.6893 34.1223C36.7 34.1223 37.5193 34.9416 37.5193 35.9523Z" fill="#00B5B3"/>
</svg>
