<svg width="51" height="37" viewBox="0 0 51 37" fill="none" xmlns="http://www.w3.org/2000/svg">
<mask id="path-1-inside-1" fill="white">
<path fill-rule="evenodd" clip-rule="evenodd" d="M10.2819 10.2877C10.1681 10.2839 10.0539 10.2819 9.93912 10.2819C4.44989 10.2819 0 14.7318 0 20.221C0 25.7103 4.44989 30.1602 9.93912 30.1602C10.0539 30.1602 10.1681 30.1582 10.2819 30.1544V30.1602H39.7565V30.1544C39.8703 30.1582 39.9846 30.1602 40.0993 30.1602C45.5886 30.1602 50.0384 25.7103 50.0384 20.221C50.0384 16.0508 47.4701 12.4805 43.829 11.0054C43.3256 4.84365 38.1653 0 31.8738 0C27.4819 0 23.6413 2.36023 21.5512 5.88146C20.5971 5.19929 19.4285 4.79785 18.1662 4.79785C15.0633 4.79785 12.5269 7.22343 12.3497 10.2819H10.2819V10.2877Z"/>
</mask>
<path d="M10.2819 10.2877L10.2413 11.487L11.4819 11.5291V10.2877H10.2819ZM10.2819 30.1544H11.4819V28.913L10.2413 28.955L10.2819 30.1544ZM10.2819 30.1602H9.08193V31.3602H10.2819V30.1602ZM39.7565 30.1602V31.3602H40.9565V30.1602H39.7565ZM39.7565 30.1544L39.7972 28.955L38.5565 28.913V30.1544H39.7565ZM43.829 11.0054L42.633 11.1031L42.6932 11.84L43.3784 12.1176L43.829 11.0054ZM21.5512 5.88146L20.8533 6.85762L21.9162 7.61758L22.5831 6.49398L21.5512 5.88146ZM12.3497 10.2819V11.4819H13.4822L13.5477 10.3513L12.3497 10.2819ZM10.2819 10.2819V9.08193H9.08193V10.2819H10.2819ZM10.3226 9.08842C10.1952 9.0841 10.0674 9.08193 9.93912 9.08193V11.4819C10.0403 11.4819 10.141 11.4836 10.2413 11.487L10.3226 9.08842ZM9.93912 9.08193C3.78715 9.08193 -1.2 14.0691 -1.2 20.221H1.2C1.2 15.3946 5.11264 11.4819 9.93912 11.4819V9.08193ZM-1.2 20.221C-1.2 26.373 3.78715 31.3602 9.93912 31.3602V28.9602C5.11264 28.9602 1.2 25.0475 1.2 20.221H-1.2ZM9.93912 31.3602C10.0674 31.3602 10.1952 31.358 10.3226 31.3537L10.2413 28.955C10.141 28.9584 10.0403 28.9602 9.93912 28.9602V31.3602ZM11.4819 30.1602V30.1544H9.08193V30.1602H11.4819ZM39.7565 28.9602H10.2819V31.3602H39.7565V28.9602ZM38.5565 30.1544V30.1602H40.9565V30.1544H38.5565ZM39.7159 31.3537C39.8432 31.358 39.9711 31.3602 40.0993 31.3602V28.9602C39.9982 28.9602 39.8974 28.9584 39.7972 28.955L39.7159 31.3537ZM40.0993 31.3602C46.2513 31.3602 51.2384 26.373 51.2384 20.221H48.8384C48.8384 25.0475 44.9258 28.9602 40.0993 28.9602V31.3602ZM51.2384 20.221C51.2384 15.5454 48.3581 11.5454 44.2795 9.8932L43.3784 12.1176C46.5822 13.4155 48.8384 16.5562 48.8384 20.221H51.2384ZM45.025 10.9077C44.4711 4.12828 38.7953 -1.2 31.8738 -1.2V1.2C37.5353 1.2 42.18 5.55902 42.633 11.1031L45.025 10.9077ZM31.8738 -1.2C27.0411 -1.2 22.8166 1.39859 20.5193 5.26895L22.5831 6.49398C24.466 3.32186 27.9227 1.2 31.8738 1.2V-1.2ZM22.2491 4.90531C21.0982 4.08238 19.687 3.59785 18.1662 3.59785V5.99785C19.1701 5.99785 20.096 6.3162 20.8533 6.85762L22.2491 4.90531ZM18.1662 3.59785C14.4238 3.59785 11.3655 6.52302 11.1517 10.2125L13.5477 10.3513C13.6884 7.92385 15.7028 5.99785 18.1662 5.99785V3.59785ZM10.2819 11.4819H12.3497V9.08193H10.2819V11.4819ZM11.4819 10.2877V10.2819H9.08193V10.2877H11.4819Z" fill="#655C9C" mask="url(#path-1-inside-1)"/>
<path fill-rule="evenodd" clip-rule="evenodd" d="M30.021 11.1851H24.7229V14.5971C24.1225 14.7944 23.5488 15.0503 23.0086 15.3582L20.6018 12.9514L16.8554 16.6978L19.3247 19.1671C19.0837 19.625 18.8793 20.1052 18.7154 20.6038H15.3066L15.3066 25.9019H18.543C18.7529 26.7177 19.0694 27.4908 19.4768 28.2053L17.2476 30.4345L20.994 34.1809L23.2862 31.8887C23.7441 32.1296 24.2243 32.3339 24.7229 32.4977V35.9099H30.021V32.6694C30.7318 32.4863 31.4102 32.2224 32.0456 31.888L34.3385 34.1809L38.0848 30.4345L35.8545 28.2041C36.2615 27.4899 36.5777 26.7173 36.7876 25.9019H40.0315V20.6038H36.6151C36.4514 20.1056 36.2472 19.6259 36.0065 19.1683L38.477 16.6978L34.7307 12.9514L32.3232 15.3589C31.609 14.9518 30.8364 14.6354 30.021 14.4254V11.1851ZM27.6656 28.8456C30.5917 28.8456 32.9637 26.4735 32.9637 23.5474C32.9637 20.6213 30.5917 18.2493 27.6656 18.2493C24.7395 18.2493 22.3674 20.6213 22.3674 23.5474C22.3674 26.4735 24.7395 28.8456 27.6656 28.8456Z" fill="white"/>
<path d="M24.7229 11.1851V10.5851H24.1229V11.1851H24.7229ZM30.021 11.1851H30.621V10.5851H30.021V11.1851ZM24.7229 14.5971L24.9101 15.1671L25.3229 15.0315V14.5971H24.7229ZM23.0086 15.3582L22.5843 15.7825L22.9079 16.1061L23.3056 15.8795L23.0086 15.3582ZM20.6018 12.9514L21.026 12.5272L20.6018 12.1029L20.1775 12.5272L20.6018 12.9514ZM16.8554 16.6978L16.4311 16.2735L16.0069 16.6978L16.4311 17.1221L16.8554 16.6978ZM19.3247 19.1671L19.8556 19.4465L20.0615 19.0553L19.7489 18.7428L19.3247 19.1671ZM18.7154 20.6038V21.2038H19.1498L19.2854 20.7911L18.7154 20.6038ZM15.3066 20.6038V20.0038H14.7066V20.6038H15.3066ZM15.3066 25.9019H14.7066V26.5019H15.3066V25.9019ZM18.543 25.9019L19.124 25.7524L19.0081 25.3019H18.543V25.9019ZM19.4768 28.2053L19.901 28.6296L20.2247 28.3059L19.998 27.9082L19.4768 28.2053ZM17.2476 30.4345L16.8233 30.0102L16.3991 30.4345L16.8233 30.8588L17.2476 30.4345ZM20.994 34.1809L20.5697 34.6051L20.994 35.0294L21.4182 34.6051L20.994 34.1809ZM23.2862 31.8887L23.5655 31.3576L23.1744 31.1519L22.8619 31.4644L23.2862 31.8887ZM24.7229 32.4977H25.3229V32.0632L24.9101 31.9276L24.7229 32.4977ZM24.7229 35.9099H24.1229V36.5099H24.7229V35.9099ZM30.021 35.9099V36.5099H30.621V35.9099H30.021ZM30.021 32.6694L29.8714 32.0883L29.421 32.2043V32.6694H30.021ZM32.0456 31.888L32.4699 31.4637L32.1573 31.1512L31.7662 31.357L32.0456 31.888ZM34.3385 34.1809L33.9142 34.6051L34.3385 35.0294L34.7627 34.6051L34.3385 34.1809ZM38.0848 30.4345L38.5091 30.8588L38.9334 30.4345L38.5091 30.0102L38.0848 30.4345ZM35.8545 28.2041L35.3332 27.907L35.1065 28.3047L35.4302 28.6284L35.8545 28.2041ZM36.7876 25.9019V25.3019H36.3224L36.2065 25.7524L36.7876 25.9019ZM40.0315 25.9019V26.5019H40.6315V25.9019H40.0315ZM40.0315 20.6038H40.6315V20.0038H40.0315V20.6038ZM36.6151 20.6038L36.0451 20.7911L36.1808 21.2038H36.6151V20.6038ZM36.0065 19.1683L35.5823 18.744L35.2698 19.0565L35.4755 19.4477L36.0065 19.1683ZM38.477 16.6978L38.9013 17.1221L39.3256 16.6978L38.9013 16.2735L38.477 16.6978ZM34.7307 12.9514L35.1549 12.5272L34.7307 12.1029L34.3064 12.5272L34.7307 12.9514ZM32.3232 15.3589L32.026 15.8801L32.4237 16.1069L32.7475 15.7832L32.3232 15.3589ZM30.021 14.4254H29.421V14.8905L29.8714 15.0065L30.021 14.4254ZM24.7229 11.7851H30.021V10.5851H24.7229V11.7851ZM25.3229 14.5971V11.1851H24.1229V14.5971H25.3229ZM23.3056 15.8795C23.8114 15.5913 24.3484 15.3517 24.9101 15.1671L24.5356 14.0271C23.8967 14.237 23.2862 14.5094 22.7115 14.8369L23.3056 15.8795ZM20.1775 13.3757L22.5843 15.7825L23.4328 14.9339L21.026 12.5272L20.1775 13.3757ZM17.2797 17.1221L21.026 13.3757L20.1775 12.5272L16.4311 16.2735L17.2797 17.1221ZM19.7489 18.7428L17.2797 16.2735L16.4311 17.1221L18.9004 19.5913L19.7489 18.7428ZM19.2854 20.7911C19.4388 20.3246 19.63 19.8752 19.8556 19.4465L18.7937 18.8876C18.5373 19.3748 18.3198 19.8858 18.1454 20.4164L19.2854 20.7911ZM15.3066 21.2038H18.7154V20.0038H15.3066V21.2038ZM15.9066 25.9019L15.9066 20.6038H14.7066L14.7066 25.9019H15.9066ZM18.543 25.3019H15.3066V26.5019H18.543V25.3019ZM19.998 27.9082C19.6167 27.2392 19.3205 26.5158 19.124 25.7524L17.9619 26.0515C18.1854 26.9197 18.5222 27.7423 18.9555 28.5025L19.998 27.9082ZM17.6719 30.8588L19.901 28.6296L19.0525 27.781L16.8233 30.0102L17.6719 30.8588ZM21.4182 33.7566L17.6719 30.0102L16.8233 30.8588L20.5697 34.6051L21.4182 33.7566ZM22.8619 31.4644L20.5697 33.7566L21.4182 34.6051L23.7104 32.3129L22.8619 31.4644ZM24.9101 31.9276C24.4436 31.7744 23.9942 31.5832 23.5655 31.3576L23.0068 32.4197C23.494 32.676 24.005 32.8934 24.5356 33.0677L24.9101 31.9276ZM25.3229 35.9099V32.4977H24.1229V35.9099H25.3229ZM30.021 35.3099H24.7229V36.5099H30.021V35.3099ZM29.421 32.6694V35.9099H30.621V32.6694H29.421ZM31.7662 31.357C31.1713 31.6701 30.5365 31.9171 29.8714 32.0883L30.1707 33.2504C30.9271 33.0556 31.649 32.7748 32.325 32.419L31.7662 31.357ZM34.7627 33.7566L32.4699 31.4637L31.6213 32.3123L33.9142 34.6051L34.7627 33.7566ZM37.6606 30.0102L33.9142 33.7566L34.7627 34.6051L38.5091 30.8588L37.6606 30.0102ZM35.4302 28.6284L37.6606 30.8588L38.5091 30.0102L36.2787 27.7798L35.4302 28.6284ZM36.2065 25.7524C36.0101 26.5153 35.7142 27.2384 35.3332 27.907L36.3758 28.5012C36.8087 27.7414 37.1453 26.9192 37.3686 26.0515L36.2065 25.7524ZM40.0315 25.3019H36.7876V26.5019H40.0315V25.3019ZM39.4315 20.6038V25.9019H40.6315V20.6038H39.4315ZM36.6151 21.2038H40.0315V20.0038H36.6151V21.2038ZM35.4755 19.4477C35.7009 19.876 35.8919 20.325 36.0451 20.7911L37.1851 20.4164C37.0109 19.8863 36.7936 19.3757 36.5375 18.889L35.4755 19.4477ZM38.0528 16.2735L35.5823 18.744L36.4308 19.5926L38.9013 17.1221L38.0528 16.2735ZM34.3064 13.3757L38.0528 17.1221L38.9013 16.2735L35.1549 12.5272L34.3064 13.3757ZM32.7475 15.7832L35.1549 13.3757L34.3064 12.5272L31.8989 14.9346L32.7475 15.7832ZM29.8714 15.0065C30.6344 15.2029 31.3574 15.499 32.026 15.8801L32.6203 14.8376C31.8606 14.4045 31.0384 14.0678 30.1707 13.8444L29.8714 15.0065ZM29.421 11.1851V14.4254H30.621V11.1851H29.421ZM32.3637 23.5474C32.3637 26.1422 30.2603 28.2456 27.6656 28.2456V29.4456C30.923 29.4456 33.5637 26.8049 33.5637 23.5474H32.3637ZM27.6656 18.8493C30.2603 18.8493 32.3637 20.9527 32.3637 23.5474H33.5637C33.5637 20.29 30.923 17.6493 27.6656 17.6493V18.8493ZM22.9674 23.5474C22.9674 20.9527 25.0708 18.8493 27.6656 18.8493V17.6493C24.4081 17.6493 21.7674 20.29 21.7674 23.5474H22.9674ZM27.6656 28.2456C25.0708 28.2456 22.9674 26.1422 22.9674 23.5474H21.7674C21.7674 26.8049 24.4081 29.4456 27.6656 29.4456V28.2456Z" fill="#00B5B3"/>
</svg>
