<svg width="51" height="31" viewBox="0 0 51 31" fill="none" xmlns="http://www.w3.org/2000/svg">
<mask id="path-1-inside-1" fill="white">
<path fill-rule="evenodd" clip-rule="evenodd" d="M10.2819 10.2877C10.1681 10.2839 10.0539 10.2819 9.93912 10.2819C4.44989 10.2819 0 14.7318 0 20.221C0 25.7103 4.44989 30.1602 9.93912 30.1602C10.0539 30.1602 10.1681 30.1582 10.2819 30.1544V30.1602H39.7565V30.1544C39.8702 30.1582 39.9843 30.1602 40.0989 30.1602C45.5881 30.1602 50.038 25.7103 50.038 20.221C50.038 16.051 47.4699 12.4807 43.829 11.0056C43.3257 4.84374 38.1654 0 31.8738 0C27.4819 0 23.6413 2.36023 21.5512 5.88146C20.5971 5.19929 19.4285 4.79785 18.1662 4.79785C15.0633 4.79785 12.5269 7.22343 12.3497 10.2819H10.2819V10.2877Z"/>
</mask>
<path d="M10.2819 10.2877L10.2413 11.487L11.4819 11.5291V10.2877H10.2819ZM10.2819 30.1544H11.4819V28.913L10.2413 28.955L10.2819 30.1544ZM10.2819 30.1602H9.08193V31.3602H10.2819V30.1602ZM39.7565 30.1602V31.3602H40.9565V30.1602H39.7565ZM39.7565 30.1544L39.7971 28.9551L38.5565 28.9131V30.1544H39.7565ZM43.829 11.0056L42.633 11.1033L42.6932 11.8401L43.3784 12.1178L43.829 11.0056ZM21.5512 5.88146L20.8533 6.85762L21.9162 7.61758L22.5831 6.49398L21.5512 5.88146ZM12.3497 10.2819V11.4819H13.4822L13.5477 10.3513L12.3497 10.2819ZM10.2819 10.2819V9.08193H9.08193V10.2819H10.2819ZM10.3226 9.08842C10.1952 9.0841 10.0674 9.08193 9.93912 9.08193V11.4819C10.0403 11.4819 10.141 11.4836 10.2413 11.487L10.3226 9.08842ZM9.93912 9.08193C3.78715 9.08193 -1.2 14.0691 -1.2 20.221H1.2C1.2 15.3946 5.11264 11.4819 9.93912 11.4819V9.08193ZM-1.2 20.221C-1.2 26.373 3.78715 31.3602 9.93912 31.3602V28.9602C5.11264 28.9602 1.2 25.0475 1.2 20.221H-1.2ZM9.93912 31.3602C10.0674 31.3602 10.1952 31.358 10.3226 31.3537L10.2413 28.955C10.141 28.9584 10.0403 28.9602 9.93912 28.9602V31.3602ZM11.4819 30.1602V30.1544H9.08193V30.1602H11.4819ZM39.7565 28.9602H10.2819V31.3602H39.7565V28.9602ZM38.5565 30.1544V30.1602H40.9565V30.1544H38.5565ZM39.7159 31.3537C39.8431 31.358 39.9708 31.3602 40.0989 31.3602V28.9602C39.9979 28.9602 39.8973 28.9585 39.7971 28.9551L39.7159 31.3537ZM40.0989 31.3602C46.2509 31.3602 51.238 26.373 51.238 20.221H48.838C48.838 25.0475 44.9254 28.9602 40.0989 28.9602V31.3602ZM51.238 20.221C51.238 15.5456 48.3579 11.5458 44.2796 9.8934L43.3784 12.1178C46.5819 13.4157 48.838 16.5563 48.838 20.221H51.238ZM45.025 10.9079C44.4712 4.12838 38.7954 -1.2 31.8738 -1.2V1.2C37.5354 1.2 42.1801 5.5591 42.633 11.1033L45.025 10.9079ZM31.8738 -1.2C27.0411 -1.2 22.8166 1.39859 20.5193 5.26895L22.5831 6.49398C24.466 3.32186 27.9227 1.2 31.8738 1.2V-1.2ZM22.2491 4.90531C21.0982 4.08238 19.687 3.59785 18.1662 3.59785V5.99785C19.1701 5.99785 20.096 6.3162 20.8533 6.85762L22.2491 4.90531ZM18.1662 3.59785C14.4238 3.59785 11.3655 6.52302 11.1517 10.2125L13.5477 10.3513C13.6884 7.92385 15.7028 5.99785 18.1662 5.99785V3.59785ZM10.2819 11.4819H12.3497V9.08193H10.2819V11.4819ZM11.4819 10.2877V10.2819H9.08193V10.2877H11.4819Z" fill="#655C9C" mask="url(#path-1-inside-1)"/>
</svg>
