<svg width="212" height="42" viewBox="0 0 212 42" fill="none" xmlns="http://www.w3.org/2000/svg">
<path d="M47.972 35C47.972 33.7193 47.972 32.4783 47.972 31.277C47.972 30.0643 47.972 28.693 47.972 27.163V18.884C47.972 17.286 47.972 15.8637 47.972 14.617C47.972 13.359 47.972 12.0727 47.972 10.758H64.445V16.555C63.459 16.555 62.3937 16.555 61.249 16.555C60.1157 16.555 58.7783 16.555 57.237 16.555H52.035L54.823 11.88C54.823 13.1947 54.823 14.481 54.823 15.739C54.823 16.9857 54.823 18.408 54.823 20.006V27.163C54.823 28.693 54.823 30.0643 54.823 31.277C54.823 32.4783 54.823 33.7193 54.823 35H47.972ZM53.038 26.024V20.482H57.271C58.7103 20.482 59.9457 20.482 60.977 20.482C62.0083 20.482 63.0057 20.482 63.969 20.482V26.024C62.949 26.024 61.9233 26.024 60.892 26.024C59.872 26.024 58.6593 26.024 57.254 26.024H53.038ZM75.7412 35.493C74.1092 35.493 72.7039 35.2493 71.5252 34.762C70.3466 34.2747 69.3719 33.6117 68.6012 32.773C67.8419 31.923 67.2809 30.9597 66.9182 29.883C66.5556 28.795 66.3742 27.656 66.3742 26.466C66.3742 24.766 66.7142 23.2417 67.3942 21.893C68.0742 20.533 69.0942 19.4563 70.4542 18.663C71.8256 17.8697 73.5426 17.473 75.6052 17.473C77.1919 17.473 78.5689 17.7053 79.7362 18.17C80.9036 18.6233 81.8726 19.2637 82.6432 20.091C83.4139 20.907 83.9862 21.859 84.3602 22.947C84.7342 24.035 84.9212 25.208 84.9212 26.466C84.9212 28.1887 84.5699 29.73 83.8672 31.09C83.1759 32.45 82.1446 33.5267 80.7732 34.32C79.4132 35.102 77.7359 35.493 75.7412 35.493ZM75.7242 30.393C76.3362 30.393 76.8462 30.2117 77.2542 29.849C77.6622 29.475 77.9626 28.9933 78.1552 28.404C78.3592 27.8033 78.4612 27.1573 78.4612 26.466C78.4612 25.6273 78.3422 24.919 78.1042 24.341C77.8662 23.763 77.5376 23.3267 77.1182 23.032C76.7102 22.7373 76.2342 22.59 75.6902 22.59C75.0782 22.59 74.5569 22.76 74.1262 23.1C73.7069 23.44 73.3839 23.9047 73.1572 24.494C72.9419 25.072 72.8342 25.7293 72.8342 26.466C72.8342 27.1573 72.9419 27.8033 73.1572 28.404C73.3839 28.9933 73.7126 29.475 74.1432 29.849C74.5739 30.2117 75.1009 30.393 75.7242 30.393ZM87.4425 35C87.4425 33.7987 87.4425 32.637 87.4425 31.515C87.4425 30.393 87.4425 29.1237 87.4425 27.707V26.007C87.4425 24.681 87.4425 23.3607 87.4425 22.046C87.4425 20.72 87.4425 19.3657 87.4425 17.983L92.7295 17.694L93.0015 20.618H93.5115C93.9422 19.7567 94.4069 19.105 94.9055 18.663C95.4042 18.2097 95.9085 17.898 96.4185 17.728C96.9399 17.558 97.4499 17.473 97.9485 17.473C98.1639 17.473 98.4359 17.4957 98.7645 17.541C99.0932 17.5863 99.3992 17.6713 99.6825 17.796L99.1385 23.916C98.6625 23.9047 98.2319 23.8933 97.8465 23.882C97.4725 23.8707 97.0872 23.865 96.6905 23.865C96.3732 23.865 96.0672 23.8933 95.7725 23.95C95.4892 24.0067 95.2229 24.1087 94.9735 24.256C94.7355 24.392 94.5145 24.579 94.3105 24.817C94.1065 25.055 93.9309 25.3497 93.7835 25.701V28.064C93.7835 29.2993 93.7835 30.4667 93.7835 31.566C93.7835 32.654 93.7835 33.7987 93.7835 35H87.4425ZM109.455 35.493C108.129 35.493 106.984 35.3117 106.021 34.949C105.069 34.575 104.338 33.963 103.828 33.113C103.329 32.2517 103.08 31.1013 103.08 29.662C103.08 29.05 103.08 28.4097 103.08 27.741C103.08 27.0723 103.08 26.3413 103.08 25.548C103.08 24.7433 103.08 23.848 103.08 22.862C103.08 21.876 103.08 20.7597 103.08 19.513C103.08 18.153 103.08 16.9233 103.08 15.824C103.08 14.7247 103.08 13.6027 103.08 12.458L109.336 11.387C109.336 12.2937 109.336 13.1663 109.336 14.005C109.336 14.8323 109.336 15.688 109.336 16.572C109.336 17.456 109.336 18.4363 109.336 19.513V27.537C109.336 28.455 109.489 29.1633 109.795 29.662C110.101 30.1493 110.622 30.393 111.359 30.393C111.688 30.393 112.045 30.3307 112.43 30.206C112.827 30.0813 113.229 29.8887 113.637 29.628L113.96 34.677C113.631 34.8583 113.218 35.0113 112.719 35.136C112.232 35.2607 111.699 35.3513 111.121 35.408C110.554 35.4647 109.999 35.493 109.455 35.493ZM100.598 22.692V17.983H113.909V22.692C112.889 22.692 111.863 22.692 110.832 22.692C109.812 22.692 108.826 22.692 107.874 22.692H105.001H100.598ZM116.465 35C116.465 33.7987 116.465 32.637 116.465 31.515C116.465 30.393 116.465 29.1237 116.465 27.707V26.007C116.465 24.817 116.465 23.7687 116.465 22.862C116.465 21.9553 116.465 21.1167 116.465 20.346C116.465 19.564 116.465 18.7763 116.465 17.983L122.806 17.813C122.806 18.6177 122.806 19.4167 122.806 20.21C122.806 21.0033 122.806 21.8647 122.806 22.794C122.806 23.7233 122.806 24.7943 122.806 26.007V27.707C122.806 29.1237 122.806 30.393 122.806 31.515C122.806 32.637 122.806 33.7987 122.806 35H116.465ZM119.61 16.079C118.488 16.079 117.593 15.824 116.924 15.314C116.267 14.804 115.938 13.9597 115.938 12.781C115.938 11.761 116.267 10.9733 116.924 10.418C117.593 9.85133 118.5 9.568 119.644 9.568C120.789 9.568 121.684 9.86267 122.33 10.452C122.988 11.03 123.316 11.8063 123.316 12.781C123.316 13.9597 122.988 14.804 122.33 15.314C121.673 15.824 120.766 16.079 119.61 16.079ZM132.226 35.493C131.285 35.493 130.412 35.442 129.608 35.34C128.814 35.2493 128.095 35.119 127.449 34.949C126.814 34.779 126.259 34.5863 125.783 34.371L126.157 29.22C126.644 29.5487 127.199 29.8377 127.823 30.087C128.457 30.325 129.098 30.512 129.744 30.648C130.401 30.7727 131.019 30.835 131.597 30.835C131.971 30.835 132.294 30.801 132.566 30.733C132.849 30.665 133.064 30.546 133.212 30.376C133.37 30.206 133.45 29.968 133.45 29.662C133.45 29.39 133.353 29.1747 133.161 29.016C132.968 28.846 132.645 28.693 132.192 28.557C131.75 28.4097 131.143 28.2397 130.373 28.047C129.285 27.775 128.401 27.4237 127.721 26.993C127.041 26.5623 126.536 26.0297 126.208 25.395C125.89 24.749 125.732 23.967 125.732 23.049C125.732 21.315 126.31 19.9607 127.466 18.986C128.622 18 130.237 17.507 132.311 17.507C133.24 17.507 134.118 17.5637 134.946 17.677C135.773 17.7903 136.521 17.9377 137.19 18.119C137.87 18.3003 138.436 18.4817 138.89 18.663L138.499 23.882C137.977 23.542 137.411 23.2643 136.799 23.049C136.187 22.8223 135.603 22.658 135.048 22.556C134.504 22.4427 134.067 22.386 133.739 22.386C133.444 22.386 133.183 22.4257 132.957 22.505C132.73 22.573 132.554 22.6863 132.43 22.845C132.305 23.0037 132.243 23.2077 132.243 23.457C132.243 23.695 132.305 23.9103 132.43 24.103C132.554 24.2843 132.787 24.4543 133.127 24.613C133.467 24.7717 133.96 24.936 134.606 25.106C135.886 25.446 136.912 25.8143 137.683 26.211C138.465 26.6077 139.026 27.095 139.366 27.673C139.717 28.251 139.893 28.9877 139.893 29.883C139.893 31.005 139.632 31.9853 139.111 32.824C138.589 33.6627 137.762 34.32 136.629 34.796C135.495 35.2607 134.028 35.493 132.226 35.493ZM149.697 35.493C148.371 35.493 147.226 35.3117 146.263 34.949C145.311 34.575 144.58 33.963 144.07 33.113C143.571 32.2517 143.322 31.1013 143.322 29.662C143.322 29.05 143.322 28.4097 143.322 27.741C143.322 27.0723 143.322 26.3413 143.322 25.548C143.322 24.7433 143.322 23.848 143.322 22.862C143.322 21.876 143.322 20.7597 143.322 19.513C143.322 18.153 143.322 16.9233 143.322 15.824C143.322 14.7247 143.322 13.6027 143.322 12.458L149.578 11.387C149.578 12.2937 149.578 13.1663 149.578 14.005C149.578 14.8323 149.578 15.688 149.578 16.572C149.578 17.456 149.578 18.4363 149.578 19.513V27.537C149.578 28.455 149.731 29.1633 150.037 29.662C150.343 30.1493 150.864 30.393 151.601 30.393C151.93 30.393 152.287 30.3307 152.672 30.206C153.069 30.0813 153.471 29.8887 153.879 29.628L154.202 34.677C153.873 34.8583 153.46 35.0113 152.961 35.136C152.474 35.2607 151.941 35.3513 151.363 35.408C150.796 35.4647 150.241 35.493 149.697 35.493ZM140.84 22.692V17.983H154.151V22.692C153.131 22.692 152.105 22.692 151.074 22.692C150.054 22.692 149.068 22.692 148.116 22.692H145.243H140.84ZM165.124 35.493C163.492 35.493 162.087 35.2493 160.908 34.762C159.729 34.2747 158.755 33.6117 157.984 32.773C157.225 31.923 156.664 30.9597 156.301 29.883C155.938 28.795 155.757 27.656 155.757 26.466C155.757 24.766 156.097 23.2417 156.777 21.893C157.457 20.533 158.477 19.4563 159.837 18.663C161.208 17.8697 162.925 17.473 164.988 17.473C166.575 17.473 167.952 17.7053 169.119 18.17C170.286 18.6233 171.255 19.2637 172.026 20.091C172.797 20.907 173.369 21.859 173.743 22.947C174.117 24.035 174.304 25.208 174.304 26.466C174.304 28.1887 173.953 29.73 173.25 31.09C172.559 32.45 171.527 33.5267 170.156 34.32C168.796 35.102 167.119 35.493 165.124 35.493ZM165.107 30.393C165.719 30.393 166.229 30.2117 166.637 29.849C167.045 29.475 167.345 28.9933 167.538 28.404C167.742 27.8033 167.844 27.1573 167.844 26.466C167.844 25.6273 167.725 24.919 167.487 24.341C167.249 23.763 166.92 23.3267 166.501 23.032C166.093 22.7373 165.617 22.59 165.073 22.59C164.461 22.59 163.94 22.76 163.509 23.1C163.09 23.44 162.767 23.9047 162.54 24.494C162.325 25.072 162.217 25.7293 162.217 26.466C162.217 27.1573 162.325 27.8033 162.54 28.404C162.767 28.9933 163.095 29.475 163.526 29.849C163.957 30.2117 164.484 30.393 165.107 30.393ZM185.342 35.391C183.359 35.391 181.676 35.0113 180.293 34.252C178.922 33.4927 177.874 32.45 177.148 31.124C176.434 29.798 176.077 28.268 176.077 26.534C176.077 24.8 176.4 23.253 177.046 21.893C177.704 20.533 178.69 19.462 180.004 18.68C181.33 17.898 182.996 17.507 185.002 17.507C185.682 17.507 186.362 17.558 187.042 17.66C187.722 17.7507 188.363 17.8867 188.963 18.068C189.575 18.238 190.114 18.4477 190.578 18.697L190.136 24.086C189.479 23.712 188.89 23.44 188.368 23.27C187.847 23.0887 187.382 22.9697 186.974 22.913C186.566 22.845 186.215 22.811 185.92 22.811C184.9 22.811 184.079 23.1283 183.455 23.763C182.843 24.3977 182.537 25.259 182.537 26.347C182.537 27.129 182.707 27.8147 183.047 28.404C183.387 28.982 183.88 29.4353 184.526 29.764C185.172 30.0927 185.949 30.257 186.855 30.257C187.252 30.257 187.643 30.223 188.028 30.155C188.414 30.0757 188.793 29.9623 189.167 29.815C189.541 29.6563 189.904 29.4637 190.255 29.237L190.51 34.626C190.102 34.7847 189.649 34.9207 189.15 35.034C188.652 35.1473 188.085 35.2323 187.45 35.289C186.827 35.357 186.124 35.391 185.342 35.391ZM203.771 35C203.42 34.3427 203.063 33.691 202.7 33.045C202.337 32.3877 201.98 31.7417 201.629 31.107L200.269 28.625H198.943V24.511H200.303L201.561 22.199C201.946 21.4963 202.332 20.7937 202.717 20.091C203.102 19.3883 203.482 18.6857 203.856 17.983H211.132C210.395 19.0257 209.67 20.0627 208.956 21.094C208.242 22.114 207.522 23.1397 206.797 24.171L204.672 27.231L204.366 24.477L207.12 28.676C207.845 29.73 208.565 30.7897 209.279 31.855C210.004 32.909 210.718 33.9573 211.421 35H203.771ZM193.095 35C193.095 33.7987 193.095 32.637 193.095 31.515C193.095 30.393 193.095 29.1237 193.095 27.707V18.238C193.095 16.8667 193.095 15.5067 193.095 14.158C193.095 12.798 193.095 11.4323 193.095 10.061L199.436 9.568C199.436 10.8827 199.436 12.2597 199.436 13.699C199.436 15.127 199.436 16.64 199.436 18.238V29.016C199.436 30.0813 199.436 31.09 199.436 32.042C199.436 32.9827 199.436 33.9687 199.436 35H193.095Z" fill="white"/>
<path fill-rule="evenodd" clip-rule="evenodd" d="M32 7H0V37H32V7ZM23 15.0769H9V28.9231H23V15.0769Z" fill="#FF4242"/>
</svg>
