<svg width="64" height="41" viewBox="0 0 64 41" fill="none" xmlns="http://www.w3.org/2000/svg">
<g clip-path="url(#clip0)">
<path d="M10.317 2.48151C10.6804 2.83051 10.8621 3.34643 10.8621 4.02926V6.84405H10.1827V4.09755C10.1827 3.5968 10.0563 3.20987 9.80356 2.94432C9.55078 2.67877 9.19531 2.5498 8.72926 2.5498C8.2079 2.5498 7.78924 2.70154 7.48907 3.0126C7.1889 3.32367 7.03881 3.74854 7.03881 4.3024V6.85163H6.35947V4.09755C6.35947 3.5968 6.23308 3.20987 5.98031 2.94432C5.72753 2.67877 5.36416 2.5498 4.8981 2.5498C4.37675 2.5498 3.96599 2.70154 3.66582 3.0126C3.35774 3.32367 3.20766 3.74854 3.20766 4.3024V6.85163H2.52832V1.99594H3.18396V2.88362C3.36564 2.58773 3.61052 2.36012 3.93439 2.20079C4.25826 2.04147 4.62163 1.95801 5.04029 1.95801C5.46685 1.95801 5.83022 2.04147 6.13829 2.21597C6.44636 2.39047 6.68334 2.64084 6.83343 2.98226C7.01511 2.6636 7.28369 2.41323 7.63915 2.23114C7.98672 2.04905 8.38959 1.95801 8.83195 1.95801C9.45599 1.95801 9.95364 2.13251 10.317 2.48151Z" fill="white"/>
<path d="M15.9967 2.42818C16.3521 2.74683 16.5259 3.21723 16.5259 3.83178V6.83624H15.8782V6.07753C15.7281 6.32791 15.499 6.52517 15.1988 6.66932C14.8987 6.81348 14.5511 6.88176 14.1403 6.88176C13.5795 6.88176 13.1292 6.75278 12.7975 6.49482C12.4657 6.23686 12.2998 5.89545 12.2998 5.47057C12.2998 5.06087 12.4578 4.72704 12.7659 4.47667C13.0739 4.2263 13.5716 4.09732 14.2509 4.09732H15.8545V3.80143C15.8545 3.38414 15.736 3.06549 15.4911 2.84546C15.2462 2.62544 14.8908 2.51922 14.4247 2.51922C14.1008 2.51922 13.8007 2.57233 13.5005 2.67096C13.2082 2.76959 12.9554 2.91375 12.7422 3.08825L12.4341 2.60268C12.6869 2.39024 12.9949 2.23092 13.3583 2.11711C13.7138 2.0033 14.0929 1.9502 14.4879 1.9502C15.1436 1.95778 15.6491 2.11711 15.9967 2.42818ZM15.2304 6.12306C15.5069 5.95614 15.7123 5.70577 15.8466 5.38712V4.59807H14.2588C13.3978 4.59807 12.9633 4.88637 12.9633 5.46299C12.9633 5.74371 13.0739 5.97132 13.303 6.13064C13.5242 6.28997 13.8402 6.37343 14.243 6.37343C14.6301 6.37343 14.954 6.28997 15.2304 6.12306Z" fill="white"/>
<path d="M23.0113 0V6.84349H22.3557V5.88753C22.1503 6.21377 21.8817 6.46414 21.542 6.63864C21.2024 6.81314 20.8232 6.8966 20.4045 6.8966C19.9306 6.8966 19.504 6.79038 19.117 6.58553C18.7299 6.37309 18.4297 6.08479 18.2164 5.70544C17.9953 5.33367 17.8926 4.90121 17.8926 4.42323C17.8926 3.94525 18.0032 3.51279 18.2164 3.14103C18.4376 2.76926 18.7378 2.47337 19.117 2.26852C19.504 2.06367 19.9306 1.95745 20.4045 1.95745C20.8153 1.95745 21.1866 2.04091 21.5104 2.20023C21.8422 2.35956 22.1108 2.60235 22.3241 2.91341V0H23.0113ZM21.4236 6.0772C21.7079 5.91787 21.9291 5.69785 22.095 5.40954C22.2609 5.12124 22.3399 4.79499 22.3399 4.42323C22.3399 4.05147 22.2609 3.72523 22.095 3.43692C21.9291 3.14861 21.7079 2.92859 21.4236 2.76926C21.1392 2.60993 20.8232 2.53406 20.4677 2.53406C20.1123 2.53406 19.7884 2.60993 19.504 2.76926C19.2197 2.92859 18.9985 3.14861 18.8326 3.43692C18.6667 3.72523 18.5877 4.05147 18.5877 4.42323C18.5877 4.79499 18.6667 5.12124 18.8326 5.40954C18.9985 5.69785 19.2197 5.91787 19.504 6.0772C19.7884 6.23653 20.1123 6.3124 20.4677 6.3124C20.8153 6.3124 21.1392 6.22894 21.4236 6.0772Z" fill="white"/>
<path d="M29.3146 4.62082H25.0885C25.128 5.12157 25.3255 5.53127 25.6968 5.84233C26.0601 6.1534 26.5262 6.30514 27.0791 6.30514C27.3951 6.30514 27.6795 6.25203 27.9402 6.14581C28.2008 6.0396 28.4299 5.88027 28.6195 5.66783L29.0066 6.09271C28.7854 6.35066 28.501 6.54793 28.1692 6.68449C27.8296 6.82106 27.4662 6.88934 27.0633 6.88934C26.542 6.88934 26.0838 6.78312 25.6889 6.57069C25.286 6.35825 24.9779 6.06236 24.7488 5.69059C24.5277 5.31883 24.4092 4.89396 24.4092 4.41597C24.4092 3.94558 24.5198 3.52071 24.7331 3.14136C24.9463 2.76959 25.2386 2.4737 25.6178 2.26126C25.989 2.04883 26.4156 1.9502 26.8817 1.9502C27.3477 1.9502 27.7664 2.05641 28.1376 2.26126C28.5089 2.4737 28.8012 2.76201 29.0145 3.13377C29.2277 3.50553 29.3304 3.93041 29.3304 4.40839L29.3146 4.62082ZM25.6494 2.96686C25.3176 3.26275 25.1359 3.65727 25.0885 4.13526H28.6748C28.6274 3.65727 28.4457 3.27034 28.1139 2.96686C27.7822 2.67096 27.3714 2.51922 26.8817 2.51922C26.384 2.51922 25.9811 2.67096 25.6494 2.96686Z" fill="white"/>
<path d="M33.2252 0.796637C33.1304 0.705593 33.083 0.591788 33.083 0.462808C33.083 0.341416 33.1304 0.235198 33.2252 0.136566C33.32 0.0455221 33.4385 0 33.5807 0C33.7228 0 33.8413 0.0455221 33.9361 0.136566C34.0309 0.227611 34.0783 0.333829 34.0783 0.455221C34.0783 0.591788 34.0309 0.705593 33.9361 0.796637C33.8413 0.887681 33.7228 0.933203 33.5807 0.933203C33.4385 0.933203 33.32 0.887681 33.2252 0.796637ZM33.2331 1.99539H33.9124V6.85108H33.2331V1.99539Z" fill="white"/>
<path d="M39.9072 2.4891C40.2784 2.84569 40.468 3.36161 40.468 4.03685V6.85163H39.7887V4.09755C39.7887 3.5968 39.6544 3.20987 39.3937 2.94432C39.133 2.67877 38.7539 2.5498 38.272 2.5498C37.727 2.5498 37.3004 2.70154 36.9765 3.0126C36.6606 3.32367 36.5026 3.74854 36.5026 4.3024V6.85163H35.8232V1.99594H36.4789V2.89121C36.6685 2.59532 36.9212 2.36771 37.253 2.20079C37.5848 2.04147 37.9639 1.95801 38.3984 1.95801C39.0225 1.95801 39.528 2.13251 39.9072 2.4891Z" fill="white"/>
<path d="M27.0629 19.2251C25.7912 19.2251 25.1513 19.6272 25.1513 20.4314C25.1513 20.8107 25.3093 21.1142 25.6174 21.3418C25.9254 21.5619 26.3599 21.6757 26.8971 21.6757C27.4263 21.6757 27.9003 21.5619 28.311 21.3191C28.7218 21.0839 29.0141 20.7349 29.1879 20.2796V19.2326H27.0629V19.2251ZM27.0629 19.2251C25.7912 19.2251 25.1513 19.6272 25.1513 20.4314C25.1513 20.8107 25.3093 21.1142 25.6174 21.3418C25.9254 21.5619 26.3599 21.6757 26.8971 21.6757C27.4263 21.6757 27.9003 21.5619 28.311 21.3191C28.7218 21.0839 29.0141 20.7349 29.1879 20.2796V19.2326H27.0629V19.2251ZM27.0629 19.2251C25.7912 19.2251 25.1513 19.6272 25.1513 20.4314C25.1513 20.8107 25.3093 21.1142 25.6174 21.3418C25.9254 21.5619 26.3599 21.6757 26.8971 21.6757C27.4263 21.6757 27.9003 21.5619 28.311 21.3191C28.7218 21.0839 29.0141 20.7349 29.1879 20.2796V19.2326H27.0629V19.2251ZM27.0629 19.2251C25.7912 19.2251 25.1513 19.6272 25.1513 20.4314C25.1513 20.8107 25.3093 21.1142 25.6174 21.3418C25.9254 21.5619 26.3599 21.6757 26.8971 21.6757C27.4263 21.6757 27.9003 21.5619 28.311 21.3191C28.7218 21.0839 29.0141 20.7349 29.1879 20.2796V19.2326H27.0629V19.2251ZM27.0629 19.2251C25.7912 19.2251 25.1513 19.6272 25.1513 20.4314C25.1513 20.8107 25.3093 21.1142 25.6174 21.3418C25.9254 21.5619 26.3599 21.6757 26.8971 21.6757C27.4263 21.6757 27.9003 21.5619 28.311 21.3191C28.7218 21.0839 29.0141 20.7349 29.1879 20.2796V19.2326H27.0629V19.2251ZM41.9452 16.3116C41.4317 15.7957 40.7761 15.5378 39.9941 15.5378C39.1962 15.5378 38.5406 15.7957 38.0272 16.3116C37.5137 16.8276 37.253 17.518 37.253 18.3829C37.253 19.2478 37.5137 19.9382 38.0272 20.4542C38.5406 20.9701 39.1962 21.228 39.9941 21.228C40.7761 21.228 41.4238 20.9701 41.9452 20.4542C42.4587 19.9382 42.7193 19.2478 42.7193 18.3829C42.7193 17.518 42.4666 16.8276 41.9452 16.3116ZM43.5172 28.0943C43.0432 27.7073 42.4587 27.5101 41.7714 27.5101C41.0684 27.5101 40.4759 27.6998 40.002 28.0791C39.528 28.4585 39.2357 28.982 39.1252 29.642H44.394C44.2913 28.9971 43.999 28.4812 43.5172 28.0943ZM43.5172 28.0943C43.0432 27.7073 42.4587 27.5101 41.7714 27.5101C41.0684 27.5101 40.4759 27.6998 40.002 28.0791C39.528 28.4585 39.2357 28.982 39.1252 29.642H44.394C44.2913 28.9971 43.999 28.4812 43.5172 28.0943ZM27.0629 19.2251C25.7912 19.2251 25.1513 19.6272 25.1513 20.4314C25.1513 20.8107 25.3093 21.1142 25.6174 21.3418C25.9254 21.5619 26.3599 21.6757 26.8971 21.6757C27.4263 21.6757 27.9003 21.5619 28.311 21.3191C28.7218 21.0839 29.0141 20.7349 29.1879 20.2796V19.2326H27.0629V19.2251ZM41.9452 16.3116C41.4317 15.7957 40.7761 15.5378 39.9941 15.5378C39.1962 15.5378 38.5406 15.7957 38.0272 16.3116C37.5137 16.8276 37.253 17.518 37.253 18.3829C37.253 19.2478 37.5137 19.9382 38.0272 20.4542C38.5406 20.9701 39.1962 21.228 39.9941 21.228C40.7761 21.228 41.4238 20.9701 41.9452 20.4542C42.4587 19.9382 42.7193 19.2478 42.7193 18.3829C42.7193 17.518 42.4666 16.8276 41.9452 16.3116ZM27.0629 19.2251C25.7912 19.2251 25.1513 19.6272 25.1513 20.4314C25.1513 20.8107 25.3093 21.1142 25.6174 21.3418C25.9254 21.5619 26.3599 21.6757 26.8971 21.6757C27.4263 21.6757 27.9003 21.5619 28.311 21.3191C28.7218 21.0839 29.0141 20.7349 29.1879 20.2796V19.2326H27.0629V19.2251ZM41.9452 16.3116C41.4317 15.7957 40.7761 15.5378 39.9941 15.5378C39.1962 15.5378 38.5406 15.7957 38.0272 16.3116C37.5137 16.8276 37.253 17.518 37.253 18.3829C37.253 19.2478 37.5137 19.9382 38.0272 20.4542C38.5406 20.9701 39.1962 21.228 39.9941 21.228C40.7761 21.228 41.4238 20.9701 41.9452 20.4542C42.4587 19.9382 42.7193 19.2478 42.7193 18.3829C42.7193 17.518 42.4666 16.8276 41.9452 16.3116ZM43.5172 28.0943C43.0432 27.7073 42.4587 27.5101 41.7714 27.5101C41.0684 27.5101 40.4759 27.6998 40.002 28.0791C39.528 28.4585 39.2357 28.982 39.1252 29.642H44.394C44.2913 28.9971 43.999 28.4812 43.5172 28.0943ZM43.5172 28.0943C43.0432 27.7073 42.4587 27.5101 41.7714 27.5101C41.0684 27.5101 40.4759 27.6998 40.002 28.0791C39.528 28.4585 39.2357 28.982 39.1252 29.642H44.394C44.2913 28.9971 43.999 28.4812 43.5172 28.0943ZM27.0629 19.2251C25.7912 19.2251 25.1513 19.6272 25.1513 20.4314C25.1513 20.8107 25.3093 21.1142 25.6174 21.3418C25.9254 21.5619 26.3599 21.6757 26.8971 21.6757C27.4263 21.6757 27.9003 21.5619 28.311 21.3191C28.7218 21.0839 29.0141 20.7349 29.1879 20.2796V19.2326H27.0629V19.2251ZM41.9452 16.3116C41.4317 15.7957 40.7761 15.5378 39.9941 15.5378C39.1962 15.5378 38.5406 15.7957 38.0272 16.3116C37.5137 16.8276 37.253 17.518 37.253 18.3829C37.253 19.2478 37.5137 19.9382 38.0272 20.4542C38.5406 20.9701 39.1962 21.228 39.9941 21.228C40.7761 21.228 41.4238 20.9701 41.9452 20.4542C42.4587 19.9382 42.7193 19.2478 42.7193 18.3829C42.7193 17.518 42.4666 16.8276 41.9452 16.3116ZM19.5902 28.0943C19.1163 27.7073 18.5317 27.5101 17.8445 27.5101C17.1414 27.5101 16.549 27.6998 16.075 28.0791C15.6011 28.4585 15.3088 28.982 15.1982 29.642H20.467C20.3565 28.9971 20.0642 28.4812 19.5902 28.0943ZM27.0629 19.2251C25.7912 19.2251 25.1513 19.6272 25.1513 20.4314C25.1513 20.8107 25.3093 21.1142 25.6174 21.3418C25.9254 21.5619 26.3599 21.6757 26.8971 21.6757C27.4263 21.6757 27.9003 21.5619 28.311 21.3191C28.7218 21.0839 29.0141 20.7349 29.1879 20.2796V19.2326H27.0629V19.2251ZM41.9452 16.3116C41.4317 15.7957 40.7761 15.5378 39.9941 15.5378C39.1962 15.5378 38.5406 15.7957 38.0272 16.3116C37.5137 16.8276 37.253 17.518 37.253 18.3829C37.253 19.2478 37.5137 19.9382 38.0272 20.4542C38.5406 20.9701 39.1962 21.228 39.9941 21.228C40.7761 21.228 41.4238 20.9701 41.9452 20.4542C42.4587 19.9382 42.7193 19.2478 42.7193 18.3829C42.7193 17.518 42.4666 16.8276 41.9452 16.3116ZM43.5172 28.0943C43.0432 27.7073 42.4587 27.5101 41.7714 27.5101C41.0684 27.5101 40.4759 27.6998 40.002 28.0791C39.528 28.4585 39.2357 28.982 39.1252 29.642H44.394C44.2913 28.9971 43.999 28.4812 43.5172 28.0943ZM43.5172 28.0943C43.0432 27.7073 42.4587 27.5101 41.7714 27.5101C41.0684 27.5101 40.4759 27.6998 40.002 28.0791C39.528 28.4585 39.2357 28.982 39.1252 29.642H44.394C44.2913 28.9971 43.999 28.4812 43.5172 28.0943ZM19.5902 28.0943C19.1163 27.7073 18.5317 27.5101 17.8445 27.5101C17.1414 27.5101 16.549 27.6998 16.075 28.0791C15.6011 28.4585 15.3088 28.982 15.1982 29.642H20.467C20.3565 28.9971 20.0642 28.4812 19.5902 28.0943ZM27.0629 19.2251C25.7912 19.2251 25.1513 19.6272 25.1513 20.4314C25.1513 20.8107 25.3093 21.1142 25.6174 21.3418C25.9254 21.5619 26.3599 21.6757 26.8971 21.6757C27.4263 21.6757 27.9003 21.5619 28.311 21.3191C28.7218 21.0839 29.0141 20.7349 29.1879 20.2796V19.2326H27.0629V19.2251ZM41.9452 16.3116C41.4317 15.7957 40.7761 15.5378 39.9941 15.5378C39.1962 15.5378 38.5406 15.7957 38.0272 16.3116C37.5137 16.8276 37.253 17.518 37.253 18.3829C37.253 19.2478 37.5137 19.9382 38.0272 20.4542C38.5406 20.9701 39.1962 21.228 39.9941 21.228C40.7761 21.228 41.4238 20.9701 41.9452 20.4542C42.4587 19.9382 42.7193 19.2478 42.7193 18.3829C42.7193 17.518 42.4666 16.8276 41.9452 16.3116ZM19.5902 28.0943C19.1163 27.7073 18.5317 27.5101 17.8445 27.5101C17.1414 27.5101 16.549 27.6998 16.075 28.0791C15.6011 28.4585 15.3088 28.982 15.1982 29.642H20.467C20.3565 28.9971 20.0642 28.4812 19.5902 28.0943ZM27.0629 19.2251C25.7912 19.2251 25.1513 19.6272 25.1513 20.4314C25.1513 20.8107 25.3093 21.1142 25.6174 21.3418C25.9254 21.5619 26.3599 21.6757 26.8971 21.6757C27.4263 21.6757 27.9003 21.5619 28.311 21.3191C28.7218 21.0839 29.0141 20.7349 29.1879 20.2796V19.2326H27.0629V19.2251ZM41.9452 16.3116C41.4317 15.7957 40.7761 15.5378 39.9941 15.5378C39.1962 15.5378 38.5406 15.7957 38.0272 16.3116C37.5137 16.8276 37.253 17.518 37.253 18.3829C37.253 19.2478 37.5137 19.9382 38.0272 20.4542C38.5406 20.9701 39.1962 21.228 39.9941 21.228C40.7761 21.228 41.4238 20.9701 41.9452 20.4542C42.4587 19.9382 42.7193 19.2478 42.7193 18.3829C42.7193 17.518 42.4666 16.8276 41.9452 16.3116ZM43.5172 28.0943C43.0432 27.7073 42.4587 27.5101 41.7714 27.5101C41.0684 27.5101 40.4759 27.6998 40.002 28.0791C39.528 28.4585 39.2357 28.982 39.1252 29.642H44.394C44.2913 28.9971 43.999 28.4812 43.5172 28.0943ZM43.5172 28.0943C43.0432 27.7073 42.4587 27.5101 41.7714 27.5101C41.0684 27.5101 40.4759 27.6998 40.002 28.0791C39.528 28.4585 39.2357 28.982 39.1252 29.642H44.394C44.2913 28.9971 43.999 28.4812 43.5172 28.0943ZM19.5902 28.0943C19.1163 27.7073 18.5317 27.5101 17.8445 27.5101C17.1414 27.5101 16.549 27.6998 16.075 28.0791C15.6011 28.4585 15.3088 28.982 15.1982 29.642H20.467C20.3565 28.9971 20.0642 28.4812 19.5902 28.0943ZM27.0629 19.2251C25.7912 19.2251 25.1513 19.6272 25.1513 20.4314C25.1513 20.8107 25.3093 21.1142 25.6174 21.3418C25.9254 21.5619 26.3599 21.6757 26.8971 21.6757C27.4263 21.6757 27.9003 21.5619 28.311 21.3191C28.7218 21.0839 29.0141 20.7349 29.1879 20.2796V19.2326H27.0629V19.2251ZM41.9452 16.3116C41.4317 15.7957 40.7761 15.5378 39.9941 15.5378C39.1962 15.5378 38.5406 15.7957 38.0272 16.3116C37.5137 16.8276 37.253 17.518 37.253 18.3829C37.253 19.2478 37.5137 19.9382 38.0272 20.4542C38.5406 20.9701 39.1962 21.228 39.9941 21.228C40.7761 21.228 41.4238 20.9701 41.9452 20.4542C42.4587 19.9382 42.7193 19.2478 42.7193 18.3829C42.7193 17.518 42.4666 16.8276 41.9452 16.3116ZM64 34.126L60.627 4.25586L0 10.5758L1.88793 27.2825C1.96692 27.1307 2.06171 26.9866 2.1644 26.85C2.55147 26.3493 3.12812 25.9547 3.87065 25.674C4.62108 25.3933 5.5058 25.2567 6.52481 25.2567C7.28314 25.2567 8.03357 25.3326 8.784 25.4919C9.53444 25.6513 10.1506 25.8713 10.6403 26.152L9.60553 28.2688C8.66551 27.7605 7.63861 27.5025 6.52481 27.5025C5.86127 27.5025 5.36361 27.5935 5.03184 27.768C4.70007 27.9501 4.53419 28.1777 4.53419 28.4585C4.53419 28.7771 4.71587 28.9971 5.07134 29.1261C5.42681 29.2551 5.99556 29.3765 6.77759 29.4903C7.65441 29.6344 8.36534 29.7786 8.92619 29.9379C9.47914 30.0973 9.9689 30.3856 10.3797 30.8028C10.7904 31.2201 10.9958 31.8119 10.9958 32.563C10.9958 33.2003 10.7983 33.7694 10.4034 34.2625C10.0084 34.7557 9.42385 35.1426 8.66551 35.4158C7.90718 35.6889 6.99877 35.8255 5.95606 35.8255C5.07134 35.8255 4.20242 35.7192 3.3493 35.5068C3.15971 35.4613 2.97803 35.4082 2.80425 35.3551L3.38089 40.4308L49.3863 35.6358V25.3933H52.3486V26.5996C52.7593 26.1672 53.2728 25.8333 53.881 25.5982C54.4893 25.363 55.1607 25.2416 55.8874 25.2416C57.2145 25.2416 58.2809 25.6209 59.0945 26.3872C59.9082 27.1535 60.3189 28.284 60.3189 29.7862V34.4977L64 34.126ZM34.8121 15.5985C35.2782 14.7942 35.918 14.1797 36.7317 13.7472C37.5453 13.3148 38.4537 13.0947 39.4648 13.0947C40.8314 13.0947 41.8978 13.512 42.664 14.339V9.35434H45.7685V23.5193H42.8062V22.3357C42.04 23.2234 40.9262 23.671 39.4648 23.671C38.4616 23.671 37.5453 23.451 36.7317 23.0186C35.918 22.5861 35.2782 21.9716 34.8121 21.1673C34.3461 20.3631 34.117 19.4375 34.117 18.3829C34.117 17.3283 34.3461 16.3951 34.8121 15.5985ZM29.1563 9.68058C29.9541 9.68058 30.5939 10.3027 30.5939 11.0614C30.5939 11.8277 29.9462 12.4423 29.1563 12.4423C28.3584 12.4423 27.7186 11.8201 27.7186 11.0614C27.7186 10.3027 28.3584 9.68058 29.1563 9.68058ZM25.4278 9.68058C26.2256 9.68058 26.8655 10.3027 26.8655 11.0614C26.8655 11.8277 26.2177 12.4423 25.4278 12.4423C24.63 12.4423 23.9901 11.8201 23.9901 11.0614C23.9901 10.3027 24.63 9.68058 25.4278 9.68058ZM28.5796 15.9854C28.1688 15.6364 27.5527 15.4619 26.7312 15.4619C26.1624 15.4619 25.6016 15.5453 25.0486 15.7198C24.4957 15.8944 24.0296 16.122 23.6505 16.4179L22.5367 14.339C23.1212 13.9445 23.8163 13.641 24.6379 13.421C25.4515 13.201 26.2888 13.0947 27.1498 13.0947C28.8087 13.0947 30.0805 13.4741 30.9652 14.2328C31.8499 14.9915 32.3002 16.1295 32.3002 17.6621V23.5193H29.4011V22.2371C28.8166 23.1931 27.7344 23.671 26.1387 23.671C25.3172 23.671 24.6063 23.5345 23.998 23.2689C23.3977 23.0034 22.9316 22.6316 22.6157 22.1612C22.2997 21.6908 22.1417 21.1597 22.1417 20.5604C22.1417 19.6044 22.513 18.8533 23.2634 18.307C24.0138 17.7608 25.1671 17.4876 26.7312 17.4876H29.1958C29.1958 16.8351 28.9904 16.3344 28.5796 15.9854ZM9.99259 23.5193V18.0946C9.99259 16.4786 9.31326 15.6667 7.96248 15.6667C7.24364 15.6667 6.6749 15.8943 6.25623 16.342C5.82967 16.7972 5.61639 17.4649 5.61639 18.3525V23.5193H2.51987V13.2465H5.4821V14.4301C5.87707 13.9976 6.36682 13.6638 6.94347 13.4362C7.52012 13.2085 8.15206 13.0947 8.8393 13.0947C9.59763 13.0947 10.277 13.2389 10.8852 13.5272C11.4935 13.8155 11.9832 14.2328 12.3545 14.7791C12.7889 14.248 13.3419 13.8307 14.0133 13.5348C14.6848 13.2389 15.4115 13.0947 16.2093 13.0947C17.5443 13.0947 18.6107 13.4741 19.4006 14.2328C20.1906 14.9915 20.5855 16.1295 20.5855 17.6394V23.5193H17.489V18.0946C17.489 17.2828 17.3152 16.6758 16.9598 16.2737C16.6122 15.8716 16.1066 15.6743 15.4589 15.6743C14.7322 15.6743 14.1555 15.9019 13.729 16.3496C13.3024 16.8048 13.0891 17.4725 13.0891 18.3601V23.5193H9.99259ZM23.3266 31.387H15.2377C15.3799 32.0244 15.7275 32.5251 16.2725 32.8969C16.8176 33.2686 17.489 33.4507 18.3026 33.4507C18.8556 33.4507 19.3532 33.3748 19.7798 33.2155C20.2064 33.0562 20.6092 32.8058 20.9805 32.4644L22.6315 34.1791C21.6203 35.2868 20.1511 35.8406 18.2157 35.8406C17.0072 35.8406 15.9408 35.613 15.0165 35.1654C14.0923 34.7178 13.3735 34.088 12.8679 33.2838C12.3624 32.4796 12.1096 31.5691 12.1096 30.5525C12.1096 29.5434 12.3545 28.6405 12.8521 27.8287C13.3498 27.0169 14.0291 26.3948 14.8981 25.9396C15.767 25.4843 16.7386 25.2643 17.8129 25.2643C18.8635 25.2643 19.8035 25.4843 20.6566 25.9168C21.5019 26.3493 22.1733 26.9714 22.6551 27.7756C23.137 28.5874 23.3819 29.5206 23.3819 30.5904C23.3898 30.6208 23.3661 30.8863 23.3266 31.387ZM31.3602 35.6813H28.1609L23.6663 25.4085H26.8655L29.8277 32.3961L32.8926 25.4085H35.8707L31.3602 35.6813ZM47.2614 31.387H39.1646C39.3068 32.0244 39.6544 32.5251 40.1995 32.8969C40.7445 33.2686 41.4159 33.4507 42.2296 33.4507C42.7825 33.4507 43.2802 33.3748 43.7067 33.2155C44.1333 33.0562 44.5362 32.8058 44.9074 32.4644L46.5584 34.1791C45.5552 35.2868 44.078 35.8406 42.1427 35.8406C40.9341 35.8406 39.8677 35.613 38.9435 35.1654C38.0193 34.7178 37.3004 34.088 36.7949 33.2838C36.2893 32.4796 36.0365 31.5691 36.0365 30.5525C36.0365 29.5434 36.2814 28.6405 36.7791 27.8287C37.2767 27.0169 37.9561 26.3948 38.825 25.9396C39.6939 25.4843 40.6655 25.2643 41.7398 25.2643C42.7825 25.2643 43.7304 25.4843 44.5836 25.9168C45.4288 26.3493 46.1002 26.9714 46.5821 27.7756C47.0639 28.5874 47.3088 29.5206 47.3088 30.5904C47.3167 30.6208 47.3009 30.8863 47.2614 31.387ZM43.5172 28.0943C43.0432 27.7073 42.4587 27.5101 41.7714 27.5101C41.0684 27.5101 40.4759 27.6998 40.002 28.0791C39.528 28.4585 39.2357 28.982 39.1252 29.642H44.394C44.2913 28.9971 43.999 28.4812 43.5172 28.0943ZM40.002 21.228C40.784 21.228 41.4317 20.9701 41.9531 20.4542C42.4665 19.9382 42.7272 19.2478 42.7272 18.3829C42.7272 17.518 42.4665 16.8276 41.9531 16.3116C41.4396 15.7957 40.784 15.5378 40.002 15.5378C39.2041 15.5378 38.5485 15.7957 38.0351 16.3116C37.5216 16.8276 37.2609 17.518 37.2609 18.3829C37.2609 19.2478 37.5216 19.9382 38.0351 20.4542C38.5485 20.9701 39.2041 21.228 40.002 21.228ZM25.1592 20.4238C25.1592 20.8032 25.3172 21.1066 25.6253 21.3342C25.9333 21.5543 26.3678 21.6681 26.905 21.6681C27.4342 21.6681 27.9082 21.5543 28.3189 21.3115C28.7297 21.0763 29.022 20.7273 29.1958 20.2721V19.2251H27.0708C25.7912 19.2251 25.1592 19.6196 25.1592 20.4238ZM19.5902 28.0943C19.1163 27.7073 18.5317 27.5101 17.8445 27.5101C17.1414 27.5101 16.549 27.6998 16.075 28.0791C15.6011 28.4585 15.3088 28.982 15.1982 29.642H20.467C20.3565 28.9971 20.0642 28.4812 19.5902 28.0943ZM41.9452 16.3116C41.4317 15.7957 40.7761 15.5378 39.9941 15.5378C39.1962 15.5378 38.5406 15.7957 38.0272 16.3116C37.5137 16.8276 37.253 17.518 37.253 18.3829C37.253 19.2478 37.5137 19.9382 38.0272 20.4542C38.5406 20.9701 39.1962 21.228 39.9941 21.228C40.7761 21.228 41.4238 20.9701 41.9452 20.4542C42.4587 19.9382 42.7193 19.2478 42.7193 18.3829C42.7193 17.518 42.4666 16.8276 41.9452 16.3116ZM27.0629 19.2251C25.7912 19.2251 25.1513 19.6272 25.1513 20.4314C25.1513 20.8107 25.3093 21.1142 25.6174 21.3418C25.9254 21.5619 26.3599 21.6757 26.8971 21.6757C27.4263 21.6757 27.9003 21.5619 28.311 21.3191C28.7218 21.0839 29.0141 20.7349 29.1879 20.2796V19.2326H27.0629V19.2251ZM19.5902 28.0943C19.1163 27.7073 18.5317 27.5101 17.8445 27.5101C17.1414 27.5101 16.549 27.6998 16.075 28.0791C15.6011 28.4585 15.3088 28.982 15.1982 29.642H20.467C20.3565 28.9971 20.0642 28.4812 19.5902 28.0943ZM43.5172 28.0943C43.0432 27.7073 42.4587 27.5101 41.7714 27.5101C41.0684 27.5101 40.4759 27.6998 40.002 28.0791C39.528 28.4585 39.2357 28.982 39.1252 29.642H44.394C44.2913 28.9971 43.999 28.4812 43.5172 28.0943ZM43.5172 28.0943C43.0432 27.7073 42.4587 27.5101 41.7714 27.5101C41.0684 27.5101 40.4759 27.6998 40.002 28.0791C39.528 28.4585 39.2357 28.982 39.1252 29.642H44.394C44.2913 28.9971 43.999 28.4812 43.5172 28.0943ZM41.9452 16.3116C41.4317 15.7957 40.7761 15.5378 39.9941 15.5378C39.1962 15.5378 38.5406 15.7957 38.0272 16.3116C37.5137 16.8276 37.253 17.518 37.253 18.3829C37.253 19.2478 37.5137 19.9382 38.0272 20.4542C38.5406 20.9701 39.1962 21.228 39.9941 21.228C40.7761 21.228 41.4238 20.9701 41.9452 20.4542C42.4587 19.9382 42.7193 19.2478 42.7193 18.3829C42.7193 17.518 42.4666 16.8276 41.9452 16.3116ZM27.0629 19.2251C25.7912 19.2251 25.1513 19.6272 25.1513 20.4314C25.1513 20.8107 25.3093 21.1142 25.6174 21.3418C25.9254 21.5619 26.3599 21.6757 26.8971 21.6757C27.4263 21.6757 27.9003 21.5619 28.311 21.3191C28.7218 21.0839 29.0141 20.7349 29.1879 20.2796V19.2326H27.0629V19.2251ZM19.5902 28.0943C19.1163 27.7073 18.5317 27.5101 17.8445 27.5101C17.1414 27.5101 16.549 27.6998 16.075 28.0791C15.6011 28.4585 15.3088 28.982 15.1982 29.642H20.467C20.3565 28.9971 20.0642 28.4812 19.5902 28.0943ZM7.50432 32.0168C7.14885 31.8878 6.5959 31.7816 5.85337 31.6905C4.97655 31.5616 4.25771 31.4174 3.68897 31.2505C3.13602 31.0912 2.65416 30.8104 2.2434 30.4083L2.49617 32.6693C2.94643 32.9272 3.47569 33.1321 4.08393 33.299C4.76327 33.4811 5.41891 33.5721 6.07455 33.5721C7.38583 33.5721 8.04147 33.261 8.04147 32.6389C8.04147 32.3506 7.85979 32.1458 7.50432 32.0168ZM41.9452 16.3116C41.4317 15.7957 40.7761 15.5378 39.9941 15.5378C39.1962 15.5378 38.5406 15.7957 38.0272 16.3116C37.5137 16.8276 37.253 17.518 37.253 18.3829C37.253 19.2478 37.5137 19.9382 38.0272 20.4542C38.5406 20.9701 39.1962 21.228 39.9941 21.228C40.7761 21.228 41.4238 20.9701 41.9452 20.4542C42.4587 19.9382 42.7193 19.2478 42.7193 18.3829C42.7193 17.518 42.4666 16.8276 41.9452 16.3116ZM27.0629 19.2251C25.7912 19.2251 25.1513 19.6272 25.1513 20.4314C25.1513 20.8107 25.3093 21.1142 25.6174 21.3418C25.9254 21.5619 26.3599 21.6757 26.8971 21.6757C27.4263 21.6757 27.9003 21.5619 28.311 21.3191C28.7218 21.0839 29.0141 20.7349 29.1879 20.2796V19.2326H27.0629V19.2251ZM43.5172 28.0943C43.0432 27.7073 42.4587 27.5101 41.7714 27.5101C41.0684 27.5101 40.4759 27.6998 40.002 28.0791C39.528 28.4585 39.2357 28.982 39.1252 29.642H44.394C44.2913 28.9971 43.999 28.4812 43.5172 28.0943ZM43.5172 28.0943C43.0432 27.7073 42.4587 27.5101 41.7714 27.5101C41.0684 27.5101 40.4759 27.6998 40.002 28.0791C39.528 28.4585 39.2357 28.982 39.1252 29.642H44.394C44.2913 28.9971 43.999 28.4812 43.5172 28.0943ZM41.9452 16.3116C41.4317 15.7957 40.7761 15.5378 39.9941 15.5378C39.1962 15.5378 38.5406 15.7957 38.0272 16.3116C37.5137 16.8276 37.253 17.518 37.253 18.3829C37.253 19.2478 37.5137 19.9382 38.0272 20.4542C38.5406 20.9701 39.1962 21.228 39.9941 21.228C40.7761 21.228 41.4238 20.9701 41.9452 20.4542C42.4587 19.9382 42.7193 19.2478 42.7193 18.3829C42.7193 17.518 42.4666 16.8276 41.9452 16.3116ZM27.0629 19.2251C25.7912 19.2251 25.1513 19.6272 25.1513 20.4314C25.1513 20.8107 25.3093 21.1142 25.6174 21.3418C25.9254 21.5619 26.3599 21.6757 26.8971 21.6757C27.4263 21.6757 27.9003 21.5619 28.311 21.3191C28.7218 21.0839 29.0141 20.7349 29.1879 20.2796V19.2326H27.0629V19.2251ZM41.9452 16.3116C41.4317 15.7957 40.7761 15.5378 39.9941 15.5378C39.1962 15.5378 38.5406 15.7957 38.0272 16.3116C37.5137 16.8276 37.253 17.518 37.253 18.3829C37.253 19.2478 37.5137 19.9382 38.0272 20.4542C38.5406 20.9701 39.1962 21.228 39.9941 21.228C40.7761 21.228 41.4238 20.9701 41.9452 20.4542C42.4587 19.9382 42.7193 19.2478 42.7193 18.3829C42.7193 17.518 42.4666 16.8276 41.9452 16.3116ZM27.0629 19.2251C25.7912 19.2251 25.1513 19.6272 25.1513 20.4314C25.1513 20.8107 25.3093 21.1142 25.6174 21.3418C25.9254 21.5619 26.3599 21.6757 26.8971 21.6757C27.4263 21.6757 27.9003 21.5619 28.311 21.3191C28.7218 21.0839 29.0141 20.7349 29.1879 20.2796V19.2326H27.0629V19.2251ZM43.5172 28.0943C43.0432 27.7073 42.4587 27.5101 41.7714 27.5101C41.0684 27.5101 40.4759 27.6998 40.002 28.0791C39.528 28.4585 39.2357 28.982 39.1252 29.642H44.394C44.2913 28.9971 43.999 28.4812 43.5172 28.0943ZM56.6616 28.4357C56.2903 28.0336 55.7532 27.8363 55.0501 27.8363C54.2681 27.8363 53.644 28.0715 53.178 28.5343C52.7119 28.9971 52.4828 29.6876 52.4828 30.6056V35.3247L57.2145 34.8316V30.2566C57.2145 29.4448 57.0328 28.8378 56.6616 28.4357ZM43.5172 28.0943C43.0432 27.7073 42.4587 27.5101 41.7714 27.5101C41.0684 27.5101 40.4759 27.6998 40.002 28.0791C39.528 28.4585 39.2357 28.982 39.1252 29.642H44.394C44.2913 28.9971 43.999 28.4812 43.5172 28.0943ZM41.9452 16.3116C41.4317 15.7957 40.7761 15.5378 39.9941 15.5378C39.1962 15.5378 38.5406 15.7957 38.0272 16.3116C37.5137 16.8276 37.253 17.518 37.253 18.3829C37.253 19.2478 37.5137 19.9382 38.0272 20.4542C38.5406 20.9701 39.1962 21.228 39.9941 21.228C40.7761 21.228 41.4238 20.9701 41.9452 20.4542C42.4587 19.9382 42.7193 19.2478 42.7193 18.3829C42.7193 17.518 42.4666 16.8276 41.9452 16.3116ZM27.0629 19.2251C25.7912 19.2251 25.1513 19.6272 25.1513 20.4314C25.1513 20.8107 25.3093 21.1142 25.6174 21.3418C25.9254 21.5619 26.3599 21.6757 26.8971 21.6757C27.4263 21.6757 27.9003 21.5619 28.311 21.3191C28.7218 21.0839 29.0141 20.7349 29.1879 20.2796V19.2326H27.0629V19.2251ZM41.9452 16.3116C41.4317 15.7957 40.7761 15.5378 39.9941 15.5378C39.1962 15.5378 38.5406 15.7957 38.0272 16.3116C37.5137 16.8276 37.253 17.518 37.253 18.3829C37.253 19.2478 37.5137 19.9382 38.0272 20.4542C38.5406 20.9701 39.1962 21.228 39.9941 21.228C40.7761 21.228 41.4238 20.9701 41.9452 20.4542C42.4587 19.9382 42.7193 19.2478 42.7193 18.3829C42.7193 17.518 42.4666 16.8276 41.9452 16.3116ZM27.0629 19.2251C25.7912 19.2251 25.1513 19.6272 25.1513 20.4314C25.1513 20.8107 25.3093 21.1142 25.6174 21.3418C25.9254 21.5619 26.3599 21.6757 26.8971 21.6757C27.4263 21.6757 27.9003 21.5619 28.311 21.3191C28.7218 21.0839 29.0141 20.7349 29.1879 20.2796V19.2326H27.0629V19.2251ZM41.9452 16.3116C41.4317 15.7957 40.7761 15.5378 39.9941 15.5378C39.1962 15.5378 38.5406 15.7957 38.0272 16.3116C37.5137 16.8276 37.253 17.518 37.253 18.3829C37.253 19.2478 37.5137 19.9382 38.0272 20.4542C38.5406 20.9701 39.1962 21.228 39.9941 21.228C40.7761 21.228 41.4238 20.9701 41.9452 20.4542C42.4587 19.9382 42.7193 19.2478 42.7193 18.3829C42.7193 17.518 42.4666 16.8276 41.9452 16.3116ZM27.0629 19.2251C25.7912 19.2251 25.1513 19.6272 25.1513 20.4314C25.1513 20.8107 25.3093 21.1142 25.6174 21.3418C25.9254 21.5619 26.3599 21.6757 26.8971 21.6757C27.4263 21.6757 27.9003 21.5619 28.311 21.3191C28.7218 21.0839 29.0141 20.7349 29.1879 20.2796V19.2326H27.0629V19.2251ZM27.0629 19.2251C25.7912 19.2251 25.1513 19.6272 25.1513 20.4314C25.1513 20.8107 25.3093 21.1142 25.6174 21.3418C25.9254 21.5619 26.3599 21.6757 26.8971 21.6757C27.4263 21.6757 27.9003 21.5619 28.311 21.3191C28.7218 21.0839 29.0141 20.7349 29.1879 20.2796V19.2326H27.0629V19.2251ZM27.0629 19.2251C25.7912 19.2251 25.1513 19.6272 25.1513 20.4314C25.1513 20.8107 25.3093 21.1142 25.6174 21.3418C25.9254 21.5619 26.3599 21.6757 26.8971 21.6757C27.4263 21.6757 27.9003 21.5619 28.311 21.3191C28.7218 21.0839 29.0141 20.7349 29.1879 20.2796V19.2326H27.0629V19.2251Z" fill="white"/>
</g>
<defs>
<clipPath id="clip0">
<rect width="64" height="40.4464" fill="white"/>
</clipPath>
</defs>
</svg>
