<svg width="26" height="26" viewBox="0 0 26 26" fill="none" xmlns="http://www.w3.org/2000/svg">
<mask id="path-1-inside-1" fill="white">
<path d="M22.1924 22.1924C17.1156 27.2692 8.88443 27.2692 3.80761 22.1924C-1.2692 17.1156 -1.2692 8.88443 3.80761 3.80761C8.88443 -1.2692 17.1156 -1.2692 22.1924 3.80761C27.2692 8.88443 27.2692 17.1156 22.1924 22.1924Z"/>
</mask>
<path d="M12.9523 12.9523L12.9566 13.4523L13.4481 13.4481L13.4523 12.9566L12.9523 12.9523ZM13.0477 13.0477L13.0434 12.5477L12.5519 12.5519L12.5477 13.0434L13.0477 13.0477ZM12.5 7.3389L12.4523 12.9481L13.4523 12.9566L13.5 7.3474L12.5 7.3389ZM12.9481 12.4523L7.3389 12.5L7.3474 13.5L12.9566 13.4523L12.9481 12.4523ZM18.6526 12.5L13.0434 12.5477L13.0519 13.5477L18.6611 13.5L18.6526 12.5ZM12.5477 13.0434L12.5 18.6526L13.5 18.6611L13.5477 13.0519L12.5477 13.0434ZM21.4853 21.4853C16.799 26.1716 9.20101 26.1716 4.51472 21.4853L3.1005 22.8995C8.56784 28.3668 17.4322 28.3668 22.8995 22.8995L21.4853 21.4853ZM4.51472 21.4853C-0.171573 16.799 -0.171573 9.20101 4.51472 4.51472L3.1005 3.1005C-2.36683 8.56784 -2.36683 17.4322 3.1005 22.8995L4.51472 21.4853ZM4.51472 4.51472C9.20101 -0.171573 16.799 -0.171573 21.4853 4.51472L22.8995 3.1005C17.4322 -2.36683 8.56784 -2.36683 3.1005 3.1005L4.51472 4.51472ZM21.4853 4.51472C26.1716 9.20101 26.1716 16.799 21.4853 21.4853L22.8995 22.8995C28.3668 17.4322 28.3668 8.56784 22.8995 3.1005L21.4853 4.51472Z" fill="#585668" mask="url(#path-1-inside-1)"/>
</svg>
