<svg width="20" height="20" viewBox="0 0 20 20" fill="none" xmlns="http://www.w3.org/2000/svg">
<path d="M9.22838 10.7045C9.20672 9.64717 9.17422 8.60283 9.13088 7.5715C9.08755 6.53583 9.04205 5.5045 8.99438 4.4775L10.5999 4.432C10.5522 5.46333 10.5067 6.50117 10.4634 7.5455C10.4201 8.5855 10.3876 9.632 10.3659 10.685L9.22838 10.7045ZM9.78088 14.156C9.57722 14.156 9.40172 14.1127 9.25438 14.026C9.10705 13.9437 8.99222 13.831 8.90988 13.688C8.83188 13.5407 8.79288 13.3717 8.79288 13.181C8.79288 12.895 8.88172 12.6653 9.05938 12.492C9.24138 12.3187 9.48405 12.232 9.78738 12.232C9.99105 12.232 10.1666 12.2732 10.3139 12.3555C10.4612 12.4335 10.5739 12.544 10.6519 12.687C10.7299 12.83 10.7689 12.9947 10.7689 13.181C10.7689 13.4627 10.6822 13.6967 10.5089 13.883C10.3356 14.065 10.0929 14.156 9.78088 14.156Z" fill="#FF4242"/>
<circle cx="10" cy="10" r="9.5" stroke="#FF4242"/>
</svg>
