<svg width="20" height="24" viewBox="0 0 20 24" fill="none" xmlns="http://www.w3.org/2000/svg">
<path d="M17.2692 3.75H13.4615V3.0625C13.4615 1.92525 12.5298 1 11.3846 1H8.61539C7.47018 1 6.53846 1.92525 6.53846 3.0625V3.75H2.73077C1.77642 3.75 1 4.52103 1 5.46875V7.875C1 8.25467 1.30998 8.5625 1.69231 8.5625H2.07065L2.66876 21.0356C2.7216 22.1371 3.63285 23 4.74331 23H15.2567C16.3672 23 17.2784 22.1371 17.3312 21.0356L17.9293 8.5625H18.3077C18.69 8.5625 19 8.25467 19 7.875V5.46875C19 4.52103 18.2236 3.75 17.2692 3.75ZM7.92308 3.0625C7.92308 2.68343 8.23366 2.375 8.61539 2.375H11.3846C11.7663 2.375 12.0769 2.68343 12.0769 3.0625V3.75H7.92308V3.0625ZM2.38462 5.46875C2.38462 5.27921 2.53991 5.125 2.73077 5.125H17.2692C17.4601 5.125 17.6154 5.27921 17.6154 5.46875V7.1875C17.402 7.1875 3.26874 7.1875 2.38462 7.1875V5.46875ZM15.9482 20.9702C15.9306 21.3374 15.6268 21.625 15.2567 21.625H4.74331C4.37314 21.625 4.06939 21.3374 4.05182 20.9702L3.45683 8.5625H16.5432L15.9482 20.9702Z" fill="#727083" stroke="white" stroke-width="0.2"/>
<path d="M9.99895 20.25C10.3813 20.25 10.6913 19.9422 10.6913 19.5625V10.625C10.6913 10.2453 10.3813 9.9375 9.99895 9.9375C9.61662 9.9375 9.30664 10.2453 9.30664 10.625V19.5625C9.30664 19.9422 9.61658 20.25 9.99895 20.25Z" fill="#727083" stroke="white" stroke-width="0.2"/>
<path d="M13.4618 20.25C13.8442 20.25 14.1541 19.9422 14.1541 19.5625V10.625C14.1541 10.2453 13.8442 9.9375 13.4618 9.9375C13.0795 9.9375 12.7695 10.2453 12.7695 10.625V19.5625C12.7695 19.9422 13.0795 20.25 13.4618 20.25Z" fill="#727083" stroke="white" stroke-width="0.2"/>
<path d="M6.53801 20.25C6.92034 20.25 7.23032 19.9422 7.23032 19.5625V10.625C7.23032 10.2453 6.92034 9.9375 6.53801 9.9375C6.15568 9.9375 5.8457 10.2453 5.8457 10.625V19.5625C5.8457 19.9422 6.15564 20.25 6.53801 20.25Z" fill="#727083" stroke="white" stroke-width="0.2"/>
</svg>
