<svg width="30" height="30" viewBox="0 0 30 30" fill="none" xmlns="http://www.w3.org/2000/svg">
<path d="M27.7653 17.7612L30 6.86327H7.97755L7.21224 3.23878L0.57551 0L0 1.1449L6.06122 4.07143L9.12245 18.6918H26.8163C26.8163 18.6918 28.5612 19.7878 27.8878 21.1714C27.5878 21.6 27.1224 22.1265 26.2898 22.1265H8.68163V23.3878H26.2959C27.5082 23.3878 28.5306 22.751 29.1061 21.7347C30.2327 19.6286 27.7653 17.7612 27.7653 17.7612ZM10.2122 17.4122L8.23469 8.13061H28.4694L26.5531 17.4122H10.2122Z" fill="white"/>
<path d="M12.3151 25.1694C10.9743 25.1694 9.89062 26.247 9.89062 27.5817C9.89062 28.9164 10.9743 29.9939 12.3151 29.9939C13.6559 29.9939 14.7396 28.9164 14.7396 27.5817C14.7396 26.247 13.6559 25.1694 12.3151 25.1694ZM12.3151 28.7266C11.6784 28.7266 11.1641 28.2184 11.1641 27.5817C11.1641 26.9449 11.6723 26.4368 12.3151 26.4368C12.958 26.4368 13.4661 26.9449 13.4661 27.5817C13.4661 28.2184 12.9518 28.7266 12.3151 28.7266Z" fill="white"/>
<path d="M25.3464 25.1694C24.0055 25.1694 22.9219 26.247 22.9219 27.5817C22.9219 28.9164 24.0055 30 25.3464 30C26.6872 30 27.8382 28.9225 27.7709 27.5878C27.7709 26.2531 26.6872 25.1694 25.3464 25.1694ZM26.4974 27.5878C26.4974 28.2245 25.9892 28.7327 25.3464 28.7327C24.7035 28.7327 24.1953 28.2245 24.1953 27.5878C24.1953 26.9511 24.7035 26.4429 25.3464 26.4429C25.9892 26.4429 26.5586 26.9511 26.4974 27.5878Z" fill="white"/>
</svg>
