<svg width="27" height="23" viewBox="0 0 27 23" fill="none" xmlns="http://www.w3.org/2000/svg">
<path d="M7.65572 0.000537677C9.90804 -0.0118472 12.0492 1.00593 13.5 2.77859C14.9418 0.993819 17.0889 -0.0268572 19.3443 0.000537677C23.5725 0.000537677 27 3.5272 27 7.8776C27 15.3328 14.3544 22.612 13.8418 22.8933C13.6349 23.0356 13.3651 23.0356 13.1582 22.8933C12.6456 22.612 -1.90735e-06 15.4382 -1.90735e-06 7.8776C-1.90735e-06 3.5272 3.4276 0.000537677 7.65572 0.000537677ZM13.5 21.4867C15.4823 20.2911 25.6329 13.9261 25.6329 7.8776C25.6329 4.30409 22.8174 1.4071 19.3443 1.4071C17.2174 1.37836 15.227 2.48216 14.081 4.32583C13.8483 4.65598 13.3995 4.72955 13.0786 4.49006C13.0173 4.44429 12.9634 4.38889 12.919 4.32583C11.0183 1.33494 7.121 0.495731 4.21418 2.4514C2.4347 3.64863 1.36362 5.68991 1.36715 7.87753C1.36709 13.9964 11.5178 20.3262 13.5 21.4867Z" fill="white"/>
</svg>
