<svg width="22" height="22" viewBox="0 0 22 22" fill="none" xmlns="http://www.w3.org/2000/svg">
<path d="M3.66667 0V4.58333H0V12.8333H3.66667V22H16.5L22 16.5V0H3.66667ZM0.916667 11.9167V5.5H14.6667V11.9167H0.916667ZM16.5 20.7038V16.5H20.7038L16.5 20.7038ZM21.0833 15.5833H15.5833V21.0833H4.58333V12.8333H15.5833V4.58333H4.58333V0.916667H21.0833V15.5833Z" fill="#3D9CEA"/>
<path d="M5.20588 7.4972C5.16921 7.35604 5.10871 7.23045 5.02438 7.12045C4.94004 7.01045 4.83004 6.92154 4.69163 6.8537C4.55321 6.78587 4.38454 6.75195 4.18288 6.75195H2.79688V10.679H3.58888V9.11145H4.01238C4.19938 9.11145 4.36988 9.08579 4.52388 9.03904C4.67788 8.99229 4.80896 8.91987 4.91713 8.82454C5.02529 8.73012 5.10963 8.60729 5.17013 8.45695C5.23063 8.30662 5.26088 8.13062 5.26088 7.92895C5.26088 7.78229 5.24163 7.63745 5.20588 7.4972ZM4.32313 8.38637C4.22688 8.4817 4.09854 8.53029 3.94088 8.53029H3.58888V7.33587H3.91888C4.11688 7.33587 4.25804 7.38812 4.34238 7.48987C4.42671 7.59254 4.46888 7.74287 4.46888 7.94087C4.46888 8.14254 4.42029 8.29104 4.32313 8.38637Z" fill="#3D9CEA"/>
<path d="M8.7857 7.87438C8.7527 7.6388 8.69036 7.43897 8.59595 7.27213C8.50245 7.10438 8.37136 6.97697 8.2027 6.88713C8.03311 6.7973 7.8122 6.75146 7.53628 6.75146H6.23828V10.6785H7.48861C7.75261 10.6785 7.97078 10.6381 8.14311 10.5575C8.31545 10.4768 8.45295 10.3549 8.55561 10.189C8.65828 10.024 8.7307 9.81313 8.77286 9.55922C8.81503 9.30438 8.8352 9.00463 8.8352 8.65996C8.8352 8.37121 8.8187 8.10905 8.7857 7.87438ZM8.01753 9.35388C8.00195 9.53447 7.96895 9.6793 7.91853 9.7893C7.86903 9.8993 7.80211 9.97813 7.71778 10.0258C7.63345 10.0735 7.52161 10.0973 7.38228 10.0973H7.03028V7.33538H7.36486C7.5152 7.33538 7.63528 7.36471 7.72511 7.42155C7.81586 7.47746 7.88278 7.5618 7.92953 7.67363C7.97536 7.78547 8.00561 7.92571 8.02028 8.09438C8.03403 8.26396 8.04228 8.46013 8.04228 8.6838C8.04228 8.95146 8.03403 9.17513 8.01753 9.35388Z" fill="#3D9CEA"/>
<path d="M12.1008 7.40095V6.75195H9.90625V10.679H10.6983V8.97395H12.0183V8.32495H10.6983V7.40095H12.1008Z" fill="#3D9CEA"/>
</svg>
