<svg width="18" height="18" viewBox="0 0 18 18" fill="none" xmlns="http://www.w3.org/2000/svg">
<path d="M0.170427 17.0207L4.81783 12.4477C3.60082 11.1255 2.85306 9.37682 2.85306 7.45262C2.85364 3.33639 6.24413 0 10.4268 0C14.6095 0 18 3.33639 18 7.45262C18 11.5688 14.6095 14.9052 10.4268 14.9052C8.61961 14.9052 6.96207 14.2802 5.6601 13.241L0.994665 17.832C0.76734 18.056 0.398281 18.056 0.170956 17.832C-0.0568981 17.6081 -0.0568981 17.2447 0.170427 17.0207ZM10.4268 13.7586C13.9658 13.7586 16.8348 10.9353 16.8348 7.45262C16.8348 3.96991 13.9658 1.14663 10.4268 1.14663C6.88778 1.14663 4.01888 3.96991 4.01888 7.45262C4.01888 10.9353 6.88778 13.7586 10.4268 13.7586Z" fill="white"/>
</svg>
