<svg width="30" height="30" viewBox="0 0 30 30" fill="none" xmlns="http://www.w3.org/2000/svg">
<path d="M15 0C6.72916 0 0 6.72916 0 15C0 23.2708 6.72916 30 15 30C23.2708 30 30 23.2708 30 15C30 6.72916 23.2709 0 15 0ZM15 28.6957C7.44782 28.6957 1.30433 22.5522 1.30433 15C1.30433 7.44782 7.44782 1.30433 15 1.30433C22.5522 1.30433 28.6957 7.44782 28.6957 15C28.6957 22.5522 22.5522 28.6957 15 28.6957Z" fill="white"/>
<path d="M15.0017 14.3477C10.3269 14.3477 6.52344 18.1511 6.52344 22.8259C6.52344 23.186 6.81563 23.4781 7.17563 23.4781C7.53563 23.4781 7.82783 23.1859 7.82783 22.8259C7.82783 18.8698 11.0456 15.652 15.0017 15.652C18.9578 15.652 22.1756 18.8698 22.1756 22.8259C22.1756 23.1859 22.4678 23.4781 22.8278 23.4781C23.1878 23.4781 23.48 23.1859 23.48 22.8259C23.48 18.1511 19.6765 14.3477 15.0017 14.3477Z" fill="white"/>
<path d="M14.9988 3.91309C12.4815 3.91309 10.4336 5.9609 10.4336 8.47833C10.4336 10.9958 12.4814 13.0436 14.9988 13.0436C17.5163 13.0436 19.5641 10.9957 19.5641 8.47833C19.5641 5.96096 17.5163 3.91309 14.9988 3.91309ZM14.9988 11.7392C13.2015 11.7392 11.738 10.2757 11.738 8.47833C11.738 6.68096 13.2015 5.21748 14.9988 5.21748C16.7962 5.21748 18.2597 6.68096 18.2597 8.47833C18.2597 10.2757 16.7963 11.7392 14.9988 11.7392Z" fill="white"/>
</svg>
