<svg width="113" height="93" viewBox="0 0 113 93" fill="none" xmlns="http://www.w3.org/2000/svg">
<line x1="26" y1="61.3225" x2="86" y2="61.3225" stroke="#00B5B3" stroke-width="2"/>
<path d="M21 34.8036L53.3523 8.90332L85.7045 34.8036V80.1291H21V34.8036Z" fill="white" stroke="#655C9C" stroke-width="2"/>
<rect x="44" y="53.4194" width="19" height="26.7097" stroke="#3D9CEA" stroke-width="2"/>
<rect x="39" y="80.1292" width="29" height="5.93548" fill="white" stroke="#655C9C" stroke-width="2"/>
<rect x="37" y="86.0645" width="33" height="5.93548" fill="white" stroke="#655C9C" stroke-width="2"/>
<mask id="path-6-inside-1" fill="white">
<path d="M0 6.19038L20.5 0L41 6.19038V20.2865C41 29.9022 36.3907 38.9352 28.6047 44.5779L20.5 50.4516L12.3953 44.5779C4.6093 38.9352 0 29.9022 0 20.2865V6.19038Z"/>
</mask>
<path d="M0 6.19038L20.5 0L41 6.19038V20.2865C41 29.9022 36.3907 38.9352 28.6047 44.5779L20.5 50.4516L12.3953 44.5779C4.6093 38.9352 0 29.9022 0 20.2865V6.19038Z" fill="white"/>
<path d="M0 6.19038L-0.578155 4.27577L-2 4.70513V6.19038H0ZM41 6.19038H43V4.70513L41.5782 4.27577L41 6.19038ZM20.5 0L21.0782 -1.91461L20.5 -2.0892L19.9218 -1.91461L20.5 0ZM20.5 50.4516L19.3264 52.071L20.5 52.9216L21.6736 52.071L20.5 50.4516ZM39 6.19038V20.2865H43V6.19038H39ZM2 20.2865V6.19038H-2V20.2865H2ZM0.578155 8.10499L21.0782 1.91461L19.9218 -1.91461L-0.578155 4.27577L0.578155 8.10499ZM19.9218 1.91461L40.4218 8.10499L41.5782 4.27577L21.0782 -1.91461L19.9218 1.91461ZM27.431 42.9585L19.3264 48.8322L21.6736 52.071L29.7783 46.1974L27.431 42.9585ZM21.6736 48.8322L13.5689 42.9585L11.2217 46.1973L19.3264 52.071L21.6736 48.8322ZM-2 20.2865C-2 30.5432 2.91659 40.1784 11.2217 46.1973L13.5689 42.9585C6.30202 37.6919 2 29.2611 2 20.2865H-2ZM39 20.2865C39 29.2611 34.698 37.6919 27.431 42.9585L29.7783 46.1974C38.0834 40.1784 43 30.5432 43 20.2865H39Z" fill="#655C9C" mask="url(#path-6-inside-1)"/>
<path d="M12 20.4761L18.5493 26.7096L30 16.8171" stroke="#FF4242" stroke-width="2"/>
</svg>
