<svg width="124" height="92" viewBox="0 0 124 92" fill="none" xmlns="http://www.w3.org/2000/svg">
<line x1="28" y1="51.4302" x2="88" y2="51.4302" stroke="#00B5B3" stroke-width="2"/>
<path d="M24 31.7444H92L86.2651 66.368H31.3735L24 31.7444Z" stroke="#655C9C" stroke-width="2"/>
<mask id="path-3-inside-1" fill="white">
<path d="M69 6.19038L89.5 0L110 6.19038V20.2865C110 29.9022 105.391 38.9352 97.6047 44.5779L89.5 50.4516L81.3953 44.5779C73.6093 38.9352 69 29.9022 69 20.2865V6.19038Z"/>
</mask>
<path d="M69 6.19038L89.5 0L110 6.19038V20.2865C110 29.9022 105.391 38.9352 97.6047 44.5779L89.5 50.4516L81.3953 44.5779C73.6093 38.9352 69 29.9022 69 20.2865V6.19038Z" fill="white"/>
<path d="M69 6.19038L68.4218 4.27577L67 4.70513V6.19038H69ZM110 6.19038H112V4.70513L110.578 4.27577L110 6.19038ZM89.5 0L90.0782 -1.91461L89.5 -2.0892L88.9218 -1.91461L89.5 0ZM89.5 50.4516L88.3264 52.071L89.5 52.9216L90.6736 52.071L89.5 50.4516ZM108 6.19038V20.2865H112V6.19038H108ZM71 20.2865V6.19038H67V20.2865H71ZM69.5782 8.10499L90.0782 1.91461L88.9218 -1.91461L68.4218 4.27577L69.5782 8.10499ZM88.9218 1.91461L109.422 8.10499L110.578 4.27577L90.0782 -1.91461L88.9218 1.91461ZM96.431 42.9585L88.3264 48.8322L90.6736 52.071L98.7783 46.1974L96.431 42.9585ZM90.6736 48.8322L82.5689 42.9585L80.2217 46.1973L88.3264 52.071L90.6736 48.8322ZM67 20.2865C67 30.5432 71.9166 40.1784 80.2217 46.1973L82.5689 42.9585C75.302 37.6919 71 29.2611 71 20.2865H67ZM108 20.2865C108 29.2611 103.698 37.6919 96.431 42.9585L98.7783 46.1974C107.083 40.1784 112 30.5432 112 20.2865H108Z" fill="#655C9C" mask="url(#path-3-inside-1)"/>
<path d="M0.873997 10.8227L16.9276 14.1767L24.1915 32.0939" stroke="#655C9C" stroke-width="2"/>
<path d="M48 85.57C48 88.5588 45.5478 91.0001 42.5 91.0001C39.4522 91.0001 37 88.5588 37 85.57C37 82.5812 39.4522 80.1399 42.5 80.1399C45.5478 80.1399 48 82.5812 48 85.57Z" fill="white" stroke="#655C9C" stroke-width="2"/>
<path d="M83 85.57C83 88.5588 80.5478 91.0001 77.5 91.0001C74.4522 91.0001 72 88.5588 72 85.57C72 82.5812 74.4522 80.1399 77.5 80.1399C80.5478 80.1399 83 82.5812 83 85.57Z" fill="white" stroke="#655C9C" stroke-width="2"/>
<path d="M80.8955 66.3682H84.043C86.2284 66.3682 88 68.1398 88 70.3252V70.3252C88 72.5105 86.2284 74.2821 84.043 74.2821H32" stroke="#655C9C" stroke-width="2"/>
<path d="M81 20.4761L87.5493 26.7096L99 16.8171" stroke="#FF4242" stroke-width="2"/>
</svg>
