<svg width="102" height="93" viewBox="0 0 102 93" fill="none" xmlns="http://www.w3.org/2000/svg">
<rect width="58" height="85.0753" transform="matrix(-1 0 0 1 78 6.9248)" fill="white" stroke="#655C9C" stroke-width="2"/>
<line y1="-1" x2="36" y2="-1" transform="matrix(1 -2.06794e-07 -3.69582e-08 -1 31 21.7634)" stroke="#3D9CEA" stroke-width="2"/>
<line y1="-1" x2="36" y2="-1" transform="matrix(1 -1.36001e-07 -5.61961e-08 -1 31 53.4194)" stroke="#3D9CEA" stroke-width="2"/>
<line y1="-1" x2="36" y2="-1" transform="matrix(1 -1.56323e-07 -4.88908e-08 -1 31 37.5913)" stroke="#3D9CEA" stroke-width="2"/>
<rect width="16" height="21.7634" rx="8" transform="matrix(-1 0 0 1 101 61.3333)" fill="white" stroke="#655C9C" stroke-width="2"/>
<line y1="-1" x2="15.828" y2="-1" transform="matrix(-4.41865e-08 1 1 4.32414e-08 94 76.1719)" stroke="#655C9C" stroke-width="2"/>
<rect width="20" height="21.7634" transform="matrix(-1 0 0 1 59 70.2366)" fill="white" stroke="#655C9C" stroke-width="2"/>
<line y1="-1" x2="21.7634" y2="-1" transform="matrix(3.04222e-08 1 1 -6.28057e-08 50 70.2366)" stroke="#655C9C" stroke-width="2"/>
<mask id="path-9-inside-1" fill="white">
<path d="M0 6.19038L20.5 0L41 6.19038V20.2865C41 29.9022 36.3907 38.9352 28.6047 44.5779L20.5 50.4516L12.3953 44.5779C4.6093 38.9352 0 29.9022 0 20.2865V6.19038Z"/>
</mask>
<path d="M0 6.19038L20.5 0L41 6.19038V20.2865C41 29.9022 36.3907 38.9352 28.6047 44.5779L20.5 50.4516L12.3953 44.5779C4.6093 38.9352 0 29.9022 0 20.2865V6.19038Z" fill="white"/>
<path d="M0 6.19038L-0.578155 4.27577L-2 4.70513V6.19038H0ZM41 6.19038H43V4.70513L41.5782 4.27577L41 6.19038ZM20.5 0L21.0782 -1.91461L20.5 -2.0892L19.9218 -1.91461L20.5 0ZM20.5 50.4516L19.3264 52.071L20.5 52.9216L21.6736 52.071L20.5 50.4516ZM39 6.19038V20.2865H43V6.19038H39ZM2 20.2865V6.19038H-2V20.2865H2ZM0.578155 8.10499L21.0782 1.91461L19.9218 -1.91461L-0.578155 4.27577L0.578155 8.10499ZM19.9218 1.91461L40.4218 8.10499L41.5782 4.27577L21.0782 -1.91461L19.9218 1.91461ZM27.431 42.9585L19.3264 48.8322L21.6736 52.071L29.7783 46.1974L27.431 42.9585ZM21.6736 48.8322L13.5689 42.9585L11.2217 46.1973L19.3264 52.071L21.6736 48.8322ZM-2 20.2865C-2 30.5432 2.91659 40.1784 11.2217 46.1973L13.5689 42.9585C6.30202 37.6919 2 29.2611 2 20.2865H-2ZM39 20.2865C39 29.2611 34.698 37.6919 27.431 42.9585L29.7783 46.1974C38.0834 40.1784 43 30.5432 43 20.2865H39Z" fill="#655C9C" mask="url(#path-9-inside-1)"/>
<path d="M12 20.4761L18.5493 26.7096L30 16.8171" stroke="#FF4242" stroke-width="2"/>
</svg>
