<svg width="135" height="92" viewBox="0 0 135 92" fill="none" xmlns="http://www.w3.org/2000/svg">
<rect x="-1" y="1" width="89" height="71.2043" transform="matrix(-1 0 0 1 110 16.8171)" fill="white" stroke="#655C9C" stroke-width="2"/>
<path d="M116.865 83.1201L116.867 83.1074H16.1333L16.1349 83.1201C16.6996 87.6222 20.5275 90.9999 25.0649 90.9999H107.935C112.473 90.9999 116.3 87.6222 116.865 83.1201Z" fill="white" stroke="#655C9C" stroke-width="2"/>
<mask id="path-3-inside-1" fill="white">
<path d="M91 6.19038L111.5 0L132 6.19038V20.2865C132 29.9022 127.391 38.9352 119.605 44.5779L111.5 50.4516L103.395 44.5779C95.6093 38.9352 91 29.9022 91 20.2865V6.19038Z"/>
</mask>
<path d="M91 6.19038L111.5 0L132 6.19038V20.2865C132 29.9022 127.391 38.9352 119.605 44.5779L111.5 50.4516L103.395 44.5779C95.6093 38.9352 91 29.9022 91 20.2865V6.19038Z" fill="white"/>
<path d="M91 6.19038L90.4218 4.27577L89 4.70513V6.19038H91ZM132 6.19038H134V4.70513L132.578 4.27577L132 6.19038ZM111.5 0L112.078 -1.91461L111.5 -2.0892L110.922 -1.91461L111.5 0ZM111.5 50.4516L110.326 52.071L111.5 52.9216L112.674 52.071L111.5 50.4516ZM130 6.19038V20.2865H134V6.19038H130ZM93 20.2865V6.19038H89V20.2865H93ZM91.5782 8.10499L112.078 1.91461L110.922 -1.91461L90.4218 4.27577L91.5782 8.10499ZM110.922 1.91461L131.422 8.10499L132.578 4.27577L112.078 -1.91461L110.922 1.91461ZM118.431 42.9585L110.326 48.8322L112.674 52.071L120.778 46.1974L118.431 42.9585ZM112.674 48.8322L104.569 42.9585L102.222 46.1973L110.326 52.071L112.674 48.8322ZM89 20.2865C89 30.5432 93.9166 40.1784 102.222 46.1973L104.569 42.9585C97.302 37.6919 93 29.2611 93 20.2865H89ZM130 20.2865C130 29.2611 125.698 37.6919 118.431 42.9585L120.778 46.1974C129.083 40.1784 134 30.5432 134 20.2865H130Z" fill="#655C9C" mask="url(#path-3-inside-1)"/>
<path d="M61.0607 47.9185C61.0607 50.8742 63.4857 53.2886 66.5001 53.2886C69.5144 53.2886 71.9395 50.8742 71.9395 47.9185C71.9395 44.9628 69.5144 42.5483 66.5001 42.5483C63.4857 42.5483 61.0607 44.9628 61.0607 47.9185Z" fill="white" stroke="#655C9C" stroke-width="2"/>
<path d="M54 70.0267C54 62.9904 59.5964 57.2864 66.5 57.2864C73.4036 57.2864 79 62.9904 79 70.0267" stroke="#655C9C" stroke-width="2"/>
<path d="M103 20.4761L109.549 26.7096L121 16.8171" stroke="#FF4242" stroke-width="2"/>
<rect width="45" height="33.6344" transform="matrix(-1 0 0 1 89 35.6128)" stroke="#00B5B3" stroke-width="2"/>
</svg>
